<?xml version="1.0" encoding="utf-8"?>
<!-- Generator: Adobe Illustrator 19.2.0, SVG Export Plug-In . SVG Version: 6.00 Build 0)  -->
<svg version="1.1" id="圖層_1" xmlns="http://www.w3.org/2000/svg" xmlns:xlink="http://www.w3.org/1999/xlink" x="0px" y="0px"
	 viewBox="0 0 82 82" style="enable-background:new 0 0 82 82;" xml:space="preserve">
<style type="text/css">
	.st0{fill:#BCCCDA;}
	.st1{display:none;}
	.st2{fill:#DBD9D8;}
	.st3{fill:#C7C5C3;}
	.st4{fill:#444141;}
	.st5{fill:#89B7E0;}
	.st6{opacity:4.000000e-002;fill:#444141;enable-background:new    ;}
	.st7{fill:#48525C;}
	.st8{fill:#E50043;}
	.st9{fill:#FCD050;}
	.st10{fill:#84CDE0;}
	.st11{fill:#00A73B;}
	.st12{fill:#232634;}
	.st13{opacity:0.5;}
	.st14{fill:#FFFFFF;}
</style>
<rect x="-1" y="-1.3" class="st0" width="84.5" height="84.2"/>
<g id="bg" class="st1">
</g>
<g id="export" class="st1">
</g>
<g id="icons">
	<g>
		<polygon class="st2" points="46.9,71.9 35,71.9 36.7,61 45.2,61 		"/>
		<polygon class="st3" points="45.8,64.5 45.2,61 36.7,61 36.1,64.5 		"/>
		<path class="st4" d="M69.4,25h-57c-1.3,0-2.3,1.1-2.3,2.3v33.1c0,1.3,1.1,2.3,2.3,2.3h57c1.3,0,2.3-1.1,2.3-2.3V27.3
			C71.9,26.1,70.8,25,69.4,25z"/>
		<rect x="12.8" y="27.5" class="st5" width="56.3" height="29.6"/>
		<path class="st2" d="M10.1,59.6v1c0,1.3,1,2.3,2.3,2.3h57c1.3,0,2.3-1.1,2.3-2.3v-1H10.1z"/>
		<polygon class="st3" points="35.1,71.1 35,71.9 46.9,71.9 46.9,71.1 		"/>
		<rect x="31.5" y="71.5" class="st2" width="18.9" height="0.8"/>
		<path class="st4" d="M42.3,61.1c0,0.6-0.5,1.1-1.1,1.1c-0.6,0-1.1-0.5-1.1-1.1c0-0.6,0.5-1.1,1.1-1.1C41.8,60,42.3,60.5,42.3,61.1
			z"/>
		<polygon class="st6" points="65.2,27.5 12.8,27.5 12.8,57 13.3,57 		"/>
	</g>
	<g>
		<g>
			<g>
				<rect x="14.6" y="11.6" class="st7" width="28.6" height="39.8"/>
				<g>
					<rect x="16" y="17" class="st8" width="25.6" height="1.4"/>
					<rect x="16.2" y="19.5" class="st9" width="10.5" height="1.4"/>
					<rect x="27.3" y="19.4" class="st8" width="6" height="1.4"/>
					<rect x="34" y="19.4" class="st10" width="3.8" height="1.4"/>
					<rect x="38.5" y="19.4" class="st11" width="2.2" height="1.4"/>
					<rect x="16.1" y="21.9" class="st10" width="7.5" height="1.4"/>
					<rect x="24.1" y="21.8" class="st11" width="4.3" height="1.4"/>
					<rect x="28.9" y="21.8" class="st10" width="2.7" height="1.4"/>
					<rect x="32.3" y="21.8" class="st9" width="6.7" height="1.4"/>
					<rect x="16.2" y="24.1" class="st8" width="10.5" height="1.4"/>
					<rect x="27.3" y="24.1" class="st10" width="6" height="1.4"/>
					<rect x="34.1" y="24.1" class="st8" width="3.8" height="1.4"/>
					<rect x="16.2" y="26.5" class="st9" width="7.5" height="1.4"/>
					<rect x="24.1" y="26.4" class="st11" width="4.3" height="1.4"/>
					<rect x="28.9" y="26.4" class="st10" width="2.7" height="1.4"/>
					<rect x="16.1" y="29.1" class="st8" width="10.5" height="1.4"/>
					<rect x="27.3" y="29.1" class="st10" width="6" height="1.4"/>
					<rect x="34" y="29.1" class="st8" width="3.8" height="1.4"/>
					<rect x="38.4" y="29" class="st11" width="2.2" height="1.4"/>
					<rect x="16.1" y="31.4" class="st11" width="7.5" height="1.4"/>
					<rect x="24" y="31.3" class="st10" width="4.3" height="1.4"/>
					<rect x="28.9" y="31.3" class="st10" width="2.7" height="1.4"/>
					<rect x="32.3" y="31.3" class="st9" width="6.7" height="1.4"/>
					<rect x="16.2" y="33.8" class="st9" width="10.5" height="1.4"/>
					<rect x="27.3" y="33.7" class="st8" width="6" height="1.4"/>
					<rect x="34" y="33.7" class="st10" width="3.8" height="1.4"/>
					<rect x="16.1" y="36" class="st8" width="7.5" height="1.4"/>
					<rect x="24.1" y="36" class="st10" width="4.3" height="1.4"/>
					<rect x="28.9" y="36" class="st10" width="2.7" height="1.4"/>
					<rect x="16.1" y="38.3" class="st10" width="17" height="1.4"/>
					<rect x="16.2" y="40.7" class="st8" width="10.5" height="1.4"/>
					<rect x="27.3" y="40.7" class="st11" width="6" height="1.4"/>
					<rect x="34.1" y="40.7" class="st9" width="3.8" height="1.4"/>
					<rect x="16.2" y="43" class="st11" width="7.5" height="1.4"/>
					<rect x="24.1" y="42.9" class="st10" width="4.3" height="1.4"/>
					<rect x="28.9" y="42.9" class="st10" width="2.7" height="1.4"/>
					<rect x="16.1" y="45.6" class="st9" width="10.5" height="1.4"/>
					<rect x="27.3" y="45.6" class="st10" width="6" height="1.4"/>
					<rect x="34" y="45.6" class="st8" width="3.8" height="1.4"/>
					<rect x="38.4" y="45.5" class="st11" width="2.2" height="1.4"/>
					<rect x="16.1" y="48" class="st8" width="7.5" height="1.4"/>
					<rect x="24" y="47.9" class="st10" width="4.3" height="1.4"/>
					<rect x="28.9" y="47.9" class="st9" width="2.7" height="1.4"/>
					<rect x="32.3" y="47.9" class="st8" width="6.7" height="1.4"/>
				</g>
			</g>
			<rect x="14.6" y="12" class="st12" width="28.6" height="3.6"/>
		</g>
	</g>
	<g class="st13">
		<rect x="43.8" y="30.3" class="st14" width="5.9" height="0.7"/>
		<rect x="43.8" y="31.8" class="st14" width="8.3" height="0.7"/>
		<rect x="43.8" y="33.3" class="st14" width="6.7" height="0.7"/>
		<rect x="43.8" y="34.9" class="st14" width="18.8" height="0.7"/>
		<rect x="43.8" y="36.4" class="st14" width="12.8" height="0.7"/>
		<rect x="43.8" y="38.3" class="st14" width="15.9" height="0.7"/>
		<rect x="43.8" y="39.8" class="st14" width="22.6" height="0.7"/>
		<rect x="43.8" y="41.3" class="st14" width="16.9" height="0.7"/>
		<rect x="43.8" y="42.8" class="st14" width="12.5" height="0.7"/>
		<rect x="43.8" y="44.3" class="st14" width="10.4" height="0.7"/>
		<rect x="43.8" y="45.9" class="st14" width="14.5" height="0.7"/>
		<rect x="43.8" y="47.4" class="st14" width="12.8" height="0.7"/>
		<rect x="43.8" y="48.9" class="st14" width="8" height="0.7"/>
		<rect x="43.8" y="50.4" class="st14" width="7" height="0.7"/>
	</g>
</g>
</svg>
