<?xml version="1.0" encoding="utf-8"?>
<!-- Generator: Adobe Illustrator 19.2.0, SVG Export Plug-In . SVG Version: 6.00 Build 0)  -->
<svg version="1.1" id="Icons" xmlns="http://www.w3.org/2000/svg" xmlns:xlink="http://www.w3.org/1999/xlink" x="0px" y="0px"
	 viewBox="0 0 336 336" style="enable-background:new 0 0 336 336;" xml:space="preserve">
<style type="text/css">
	.st0{fill:#FFFFFF;stroke:#FFFFFF;stroke-width:1.4412;stroke-miterlimit:10;}
</style>
<g>
	<path class="st0" d="M177.2,144.4l2.5-3.9H134c1.4,1,2.6,2.4,3.5,3.9H177.2z"/>
	<polygon class="st0" points="131.3,191.7 122.5,191.7 124.9,195.6 133.1,195.6 	"/>
	<path class="st0" d="M110.5,198.9l27.7,46.1c1.3,2.2,4.2,3,6.4,1.6c0.2-0.1,0.3-0.2,0.4-0.3l61.3-46l40.1,35.1
		c1.9,1.7,4.9,1.5,6.6-0.4c0,0,0.1-0.1,0.1-0.1l64.4-75.2c1.7-2,1.4-5-0.6-6.7c-1-0.8-2.3-1.2-3.6-1.1c-1.2,0.1-2.2,0.7-3,1.6
		L249,225.2l-39.3-34.5c-1.7-1.5-4.2-1.5-6-0.2l-60.2,45.2l-27.3-45.5L110.5,198.9z"/>
	<polygon class="st0" points="244.9,140.5 229.6,140.5 231.5,144.4 242,144.4 	"/>
	<path class="st0" d="M22.1,195.6H36c2.1-2.1,4.9-3.5,7.9-3.9H22.1v-10.1c-4.8,1.9-10.3-0.5-12.2-5.3c-0.3-0.7-0.4-1.4-0.6-2.1v48.1
		l12.8-12.8V195.6z"/>
	<path class="st0" d="M123.1,145.3c-1.1,0.5-2,1.4-2.7,2.4l-49.1,73.7l-21.1-21.1c-2.6-2.6-6.9-2.7-9.5-0.1c0,0,0,0-0.1,0.1
		l-26.8,26.8c-2.6,2.6-2.6,6.9,0,9.6c2.6,2.6,6.9,2.6,9.6,0l22.1-22.1l22.1,22.1c2.6,2.6,6.9,2.6,9.5,0c0.3-0.3,0.6-0.7,0.9-1.1
		l47.2-70.8l21.6,43.3c1.6,3.3,5.7,4.7,9,3.1c1.1-0.5,2-1.4,2.7-2.4l47.2-70.8l21.6,43.3c1.6,3.3,5.7,4.7,9,3c1-0.5,1.8-1.2,2.4-2
		l80.5-107.4c2.3-2.9,1.8-7.1-1.2-9.4c-1.3-1-3-1.5-4.6-1.4c-2,0.1-3.8,1.2-4.9,2.8l-74,98.7l-22-44c-1.6-3.3-5.7-4.7-9-3.1
		c-1.1,0.5-2,1.4-2.7,2.4l-47.2,70.8l-21.6-43.3C130.5,145,126.4,143.7,123.1,145.3z"/>
	<path class="st0" d="M57.3,144.4h57.3l0.3-0.5c0.9-1.3,1.9-2.4,3.2-3.4H53.4L57.3,144.4z"/>
	<path class="st0" d="M45,141.3c-1.1,0.1-2.1,0.6-2.9,1.3l-26.8,26.8c-1.8,1.8-1.8,4.8,0,6.7c1.8,1.8,4.8,1.8,6.7,0c0,0,0,0,0,0
		l23.5-23.5L69,176.1c1.4,1.5,3.6,1.8,5.5,0.9l17.6-8.8l3.1,5.2l5.8-8.6l-3.1-5.1c-1.3-2.1-3.9-2.9-6.1-1.8l-18.4,9.2l-24.5-24.5
		C47.9,141.6,46.4,141.1,45,141.3z"/>
	<path class="st0" d="M322.5,33.8H15.7c-0.2,0-0.4,0-0.6,0c-3.3,0.3-5.8,3.1-5.8,6.4v131.3c0.3-2,1.2-3.9,2.7-5.4l10.1-10.1v-11.7
		h11.7l3.9-3.9H22.1V93.3h258.2l2.9-3.9H22.1V46.7h294v10.7c7.3,1.1,12.3,8,11.2,15.3c-0.4,2.2-1.3,4.4-2.6,6.1l-10.8,14.4h2.3v47.2
		h-37.7l-2.9,3.9h40.6v2.6c5.1,1,8.4,5.9,7.4,11c-0.3,1.8-1.2,3.4-2.5,4.8l-4.9,5.8v23.2h-19.9l-3.3,3.9h23.2v47.2H157.5l-5.1,3.9
		h163.8v42.9h-294v-42.9h111.6l-2.4-3.9H80.2c-4.6,3.3-10.9,3.3-15.5,0h-38c-5.1,4.1-12.4,4-17.3-0.3v53.4c0,3.5,2.9,6.4,6.4,6.4
		h306.8c3.5,0,6.4-2.9,6.4-6.4V40.2C328.9,36.7,326.1,33.8,322.5,33.8z"/>
	<path class="st0" d="M80.4,195.6l2.6-3.9H46.6c3.2,0.3,6.1,1.6,8.4,3.9H80.4z"/>
	<polygon class="st0" points="222.4,195.6 268.3,195.6 271.6,191.7 218,191.7 	"/>
	<polygon class="st0" points="177.9,191.7 177.9,191.7 175.4,195.6 189.2,195.6 194.4,191.7 	"/>
</g>
</svg>
