<?xml version="1.0" encoding="utf-8"?>
<!-- Generator: Adobe Illustrator 19.2.0, SVG Export Plug-In . SVG Version: 6.00 Build 0)  -->
<svg version="1.1" id="Icons" xmlns="http://www.w3.org/2000/svg" xmlns:xlink="http://www.w3.org/1999/xlink" x="0px" y="0px"
	 viewBox="0 0 336 336" style="enable-background:new 0 0 336 336;" xml:space="preserve">
<style type="text/css">
	.st0{fill:#FFFFFF;}
</style>
<g>
	<path class="st0" d="M301,76.8H173.7V9.6h-12.9v67.2H33.4c-8.3,0-15.1,6.8-15.1,15.1v164.2c0,8.3,6.8,15.1,15.1,15.1h127.4v57.7
		h12.9v-57.7H301c8.3,0,15.1-6.8,15.1-15.1V91.9C316.1,83.6,309.4,76.8,301,76.8z M33.4,258.3c-1.2,0-2.1-1-2.1-2.2V91.9
		c0-1.2,1-2.2,2.1-2.2h127.4v10.8H43.4v146.3h117.4v11.5H33.4z M56.3,232.6l1.5,1.3h-1.5V232.6z M160.7,233.8H64l31.8-38l16.8,17.3
		l33-43.9l15.1,18.3V233.8z M173.7,113.4h106.4v120.4H173.7V113.4z M160.7,167.2l-15.6-18.9l-33.8,44.9l-16.2-16.7l-38.8,46.4V113.4
		h104.4V167.2z M303.2,256.1c0,1.2-1,2.2-2.1,2.2H173.7v-11.5H293V100.5H173.7V89.7H301c1.2,0,2.1,1,2.1,2.2V256.1z"/>
	<path class="st0" d="M222.9,132.1c-9,0-16.3,7.3-16.3,16.3c0,9,7.3,16.3,16.3,16.3c9,0,16.3-7.3,16.3-16.3
		C239.2,139.4,231.9,132.1,222.9,132.1z"/>
	<rect x="132.6" y="43.8" class="st0" width="25.9" height="12.9"/>
	<rect x="80.8" y="43.8" class="st0" width="25.9" height="12.9"/>
	<rect x="184.4" y="43.8" class="st0" width="25.9" height="12.9"/>
	<rect x="236.1" y="43.8" class="st0" width="20.1" height="12.9"/>
	<rect x="229.1" y="284.5" class="st0" width="25.9" height="12.9"/>
	<rect x="79.5" y="284.5" class="st0" width="20.2" height="12.9"/>
	<rect x="177.3" y="284.5" class="st0" width="25.9" height="12.9"/>
	<rect x="125.5" y="284.5" class="st0" width="25.9" height="12.9"/>
</g>
<g>
	<path class="st0" d="M49,180.4v53.8h25.2v-53.8c0-3.5-2.8-6.3-6.3-6.3H55.4C51.9,174.1,49,176.9,49,180.4z"/>
	<path class="st0" d="M61.7,88.4c-3,0-5.5,2.5-5.5,5.5v73.4h11V93.9C67.2,90.9,64.7,88.4,61.7,88.4z"/>
	<path class="st0" d="M294.2,241.3H40.7c-11.7,0-21.3,9.5-21.3,21.3v42.5c0,11.7,9.5,21.3,21.3,21.3h253.4
		c11.7,0,21.3-9.5,21.3-21.3v-42.5C315.4,250.8,305.9,241.3,294.2,241.3z M60.9,295.6c-6.5,0-11.8-5.3-11.8-11.8
		c0-6.5,5.3-11.8,11.8-11.8c6.5,0,11.8,5.3,11.8,11.8C72.7,290.3,67.4,295.6,60.9,295.6z M103.5,295.6c-6.5,0-11.8-5.3-11.8-11.8
		c0-6.5,5.3-11.8,11.8-11.8c6.5,0,11.8,5.3,11.8,11.8C115.3,290.3,110,295.6,103.5,295.6z M146.1,295.6c-6.5,0-11.8-5.3-11.8-11.8
		c0-6.5,5.3-11.8,11.8-11.8c6.5,0,11.8,5.3,11.8,11.8C157.9,290.3,152.6,295.6,146.1,295.6z M188.7,295.6c-6.5,0-11.8-5.3-11.8-11.8
		c0-6.5,5.3-11.8,11.8-11.8c6.5,0,11.8,5.3,11.8,11.8C200.6,290.3,195.3,295.6,188.7,295.6z M231.4,295.6c-6.5,0-11.8-5.3-11.8-11.8
		c0-6.5,5.3-11.8,11.8-11.8c6.5,0,11.8,5.3,11.8,11.8C243.2,290.3,237.9,295.6,231.4,295.6z M274,295.6c-6.5,0-11.8-5.3-11.8-11.8
		c0-6.5,5.3-11.8,11.8-11.8c6.5,0,11.8,5.3,11.8,11.8C285.8,290.3,280.5,295.6,274,295.6z"/>
	<path class="st0" d="M46.5,18.9c22.6-1.4,44.9,7,60.7,22.5l11.1,13.6c0.7,1,1.3,2,1.9,3c10.2,17.1,13.6,37.3,9.7,56.8
		c-0.5,2.4,1.1,4.8,3.5,5.3c0.3,0.1,0.6,0.1,0.9,0.1c2.1,0,4-1.5,4.4-3.6c4.4-21.7,0.6-44.1-10.8-63.2c-0.7-1.1-1.4-2.3-2.4-3.8
		l-11.7-14.3C95.9,17.6,71,8.4,45.9,9.9c-2.5,0.2-4.4,2.3-4.2,4.8C41.8,17.1,44.2,19,46.5,18.9z"/>
	<path class="st0" d="M91.2,112.4c0.3,0.1,0.6,0.1,0.9,0.1c2.1,0,4-1.5,4.4-3.6c2.3-11.5,0.3-23.5-5.7-33.6
		c-9.1-15.3-25.9-24.2-43.7-23.2c-2.5,0.1-4.4,2.3-4.2,4.8c0.2,2.5,2.3,4.4,4.8,4.2c14.6-0.8,28,6.3,35.4,18.8
		c4.9,8.2,6.5,17.9,4.6,27.3C87.2,109.6,88.8,112,91.2,112.4z"/>
	<path class="st0" d="M46.2,38.4c23.1-1.3,44.6,10.1,56.4,29.9c7.8,13.1,10.4,28.5,7.4,43.4c-0.5,2.4,1.1,4.8,3.5,5.3
		c0.3,0.1,0.6,0.1,0.9,0.1c2.1,0,4-1.5,4.4-3.6c3.5-17.1,0.4-34.8-8.5-49.8C96.9,40.9,72.2,27.8,45.7,29.4c-2.5,0.2-4.4,2.3-4.2,4.8
		C41.6,36.6,44,38.6,46.2,38.4z"/>
</g>
</svg>
