<?xml version="1.0" encoding="utf-8"?>
<!-- Generator: Adobe Illustrator 19.2.0, SVG Export Plug-In . SVG Version: 6.00 Build 0)  -->
<svg version="1.1" id="圖層_1" xmlns="http://www.w3.org/2000/svg" xmlns:xlink="http://www.w3.org/1999/xlink" x="0px" y="0px"
	 viewBox="0 0 180 180" style="enable-background:new 0 0 180 180;" xml:space="preserve">
<style type="text/css">
	.st0{fill:#FFFFFF;}
</style>
<rect x="115.4" y="16.4" class="st0" width="30.8" height="3.4"/>
<path class="st0" d="M164.9,1.3H96.7c-7.2,0-13.1,5.9-13.1,13.1c0,25.2,0,44.3,0,70.8H32.1h-5.3h-7.5h-5.2C6.9,85.2,1,91.1,1,98.3
	v68.3c0,7.2,5.9,13.1,13.1,13.1h5.2h7.5h5.3h93.3h5.3h6.2h6.5c7.2,0,13.1-5.9,13.1-13.1v-9.7h8.4c7.2,0,13.1-5.9,13.1-13.1
	c0-7.7,0-121.8,0-129.4C178,7.2,172.2,1.3,164.9,1.3z M90.3,27.1v-7.5v-5.2c0-3.5,2.9-6.4,6.4-6.4h68.3c3.5,0,6.4,2.9,6.4,6.4v5.2
	v7.5v1H90.3V27.1z M90.3,32.5v-1h81.1v1v93.3v1h-14.8V98.3c0-7.2-5.9-13.1-13.1-13.1c-11.2,0-41.2,0-53.2,0V32.5z M19.3,173h-5.2
	c-3.5,0-6.4-2.9-6.4-6.4V98.3c0-3.5,2.9-6.4,6.4-6.4h5.2h7.5h1V173h-1H19.3z M32.1,173h-1V91.9h1h51.4h6.7h35.1h1
	c0,17.9,0,65.2,0,81.1h-1H32.1z M149.9,166.6c0,3.5-2.9,6.4-6.4,6.4h-6.5h-6.2h-1c0-36.3,0-45.9,0-81.1h1h6.2h6.5
	c3.5,0,6.4,2.9,6.4,6.4v28.4v3.4v20.1v6.7V166.6z M171.3,131v6.2v6.5c0,3.5-2.9,6.4-6.4,6.4h-8.4v-20.1h14.8V131z"/>
<rect x="16.1" y="117.1" class="st0" width="3.4" height="30.8"/>
<polygon class="st0" points="137.1,130.1 137.1,136.3 143.8,136.3 143.8,130.1 143.8,128.6 137.1,128.6 "/>
<path class="st0" d="M64.1,15.1l-8.7-5v3.3H24.9c-7.5,0-13.7,6.1-13.7,13.7V62H7.9l5,8.7l5-8.7h-3.3V27.1c0-5.7,4.6-10.3,10.3-10.3
	h30.4v3.3L64.1,15.1z"/>
</svg>
