<?xml version="1.0" encoding="utf-8"?>
<!-- Generator: Adobe Illustrator 19.2.0, SVG Export Plug-In . SVG Version: 6.00 Build 0)  -->
<svg version="1.1" id="圖層_1" xmlns="http://www.w3.org/2000/svg" xmlns:xlink="http://www.w3.org/1999/xlink" x="0px" y="0px"
	 viewBox="0 0 82 82" style="enable-background:new 0 0 82 82;" xml:space="preserve">
<style type="text/css">
	.st0{fill:#CAB796;}
	.st1{display:none;}
	.st2{fill:#272E35;}
	.st3{fill:#5C5D5E;}
	.st4{fill:#EAF2F3;}
	.st5{fill:#EC643B;}
	.st6{fill:#353F49;}
	.st7{fill:#6EC49E;}
	.st8{fill:#656A73;}
	.st9{fill:#BEE2D2;}
	.st10{fill:#F37B56;}
	.st11{fill:#BBFFF5;}
</style>
<rect x="-1.5" y="-1.2" class="st0" width="88.3" height="85.5"/>
<g id="bg" class="st1">
</g>
<g id="export" class="st1">
</g>
<g id="icons">
	<g>
		<g>
			<g>
				<g>
					<g>
						<path class="st2" d="M59.1,69.1V12.7c0-4.3-2.4-7.2-5.3-7.2H27.2c-2.9,0-5,2.9-5,7.2v56.4c0,4.3,2.1,7.8,5,7.8h26.6
							C56.7,76.9,59.1,73.4,59.1,69.1z"/>
						<ellipse class="st3" cx="38.4" cy="7.2" rx="0.7" ry="0.7"/>
						<path class="st3" d="M43.4,7c0-0.2-0.1-0.3-0.3-0.3h-2.4c-0.2,0-0.3,0.2-0.3,0.3l0,0c0,0.2,0.1,0.3,0.3,0.3h2.4
							C43.2,7.3,43.4,7.2,43.4,7L43.4,7z"/>
						<rect x="24.2" y="16.3" class="st4" width="32.7" height="49.6"/>
					</g>
					<path class="st3" d="M42.6,73.7h-3.9c-0.5,0-0.9-0.4-0.9-0.9v-1.2c0-0.5,0.4-0.9,0.9-0.9h3.9c0.5,0,0.9,0.4,0.9,0.9v1.2
						C43.4,73.3,43.1,73.7,42.6,73.7z"/>
				</g>
				<g>
					<path class="st5" d="M40.7,38c1,0,1.8,0.4,2.6,0.9l3.7-4.4c-1.7-1.5-3.9-2.3-6.2-2.3h-0.1L40.7,38C40.6,38,40.6,38,40.7,38z"/>
					<path class="st6" d="M46.8,34.6L43.2,39c0.8,0.7,1.3,1.7,1.3,2.8c0,0.7-0.2,1.5-0.6,2l5,2.8c0.8-1.5,1.4-3.1,1.4-4.9
						C50.2,38.9,49,36.3,46.8,34.6z"/>
					<path class="st7" d="M40.7,45.7c-1.3,0-2.4-0.6-3.1-1.6l-5,2.8c1.7,2.7,4.7,4.4,8.1,4.4c3.5,0,6.5-1.8,8.3-4.7l-5-2.8
						C43.3,45,42.1,45.7,40.7,45.7z"/>
					<path class="st8" d="M36.8,41.8c0-2.1,1.7-3.8,3.8-3.9v-5.8c-5.2,0.1-9.4,4.3-9.4,9.5c0,1.9,0.6,3.7,1.5,5.1l5-2.8
						C37.1,43.5,36.8,42.7,36.8,41.8z"/>
				</g>
			</g>
			<g>
				<g>
					<path class="st9" d="M56.3,23.6c0,3-3,5.6-6.7,5.6c-0.9,0-3.5,1.7-4.3,1.4c-0.6-0.3,0.5-2.4-0.1-2.8c-1.4-1-2.3-2.5-2.3-4.2
						c0-3,3-5.6,6.7-5.6C53.3,18,56.3,20.5,56.3,23.6z"/>
					<circle class="st10" cx="46.7" cy="25.1" r="0.6"/>
					<circle class="st10" cx="49.6" cy="25.1" r="0.6"/>
					<circle class="st10" cx="52.5" cy="25.1" r="0.6"/>
				</g>
				<g>
					<path class="st11" d="M49.6,24c0,3-3,5.6-6.7,5.6c-0.9,0-3.5,1.7-4.3,1.4c-0.6-0.3,0.5-2.4-0.1-2.8c-1.4-1-2.3-2.5-2.3-4.2
						c0-3,3-5.6,6.7-5.6C46.7,18.4,49.6,20.9,49.6,24z"/>
					<circle class="st10" cx="40" cy="25.5" r="0.6"/>
					<circle class="st10" cx="42.9" cy="25.5" r="0.6"/>
					<circle class="st10" cx="45.9" cy="25.5" r="0.6"/>
				</g>
			</g>
		</g>
		<rect x="26.8" y="56.2" class="st9" width="27.6" height="6.5"/>
	</g>
</g>
</svg>
