<?xml version="1.0" encoding="utf-8"?>
<!-- Generator: Adobe Illustrator 19.2.0, SVG Export Plug-In . SVG Version: 6.00 Build 0)  -->
<svg version="1.1" id="Icons" xmlns="http://www.w3.org/2000/svg" xmlns:xlink="http://www.w3.org/1999/xlink" x="0px" y="0px"
	 viewBox="0 0 336 336" style="enable-background:new 0 0 336 336;" xml:space="preserve">
<style type="text/css">
	.st0{fill:#FFFFFF;}
</style>
<g id="Favorite">
	<path class="st0" d="M78.7,54.2c0-2.9,2.4-5.3,5.3-5.3h186.7v-6.1c0-2.9-2.4-5.3-5.3-5.3H71.5c-2.9,0-5.3,2.4-5.3,5.3v253
		c0,2.9,2.4,5.3,5.3,5.3h7.2V54.2z"/>
	<path class="st0" d="M54.9,30.8c0-2.9,2.4-5.3,5.3-5.3h186.7v-6.1c0-2.9-2.4-5.3-5.3-5.3H47.8c-2.9,0-5.3,2.4-5.3,5.3v253
		c0,2.9,2.4,5.3,5.3,5.3h7.2V30.8z"/>
	<path class="st0" d="M288.4,59.5H94.6c-2.9,0-5.3,2.4-5.3,5.3v253c0,2.9,2.4,5.3,5.3,5.3h155.6c1.3,0,2.5-0.5,3.5-1.3l38.3-33.2
		c1.2-1,1.8-2.5,1.8-4V64.8C293.7,61.9,291.4,59.5,288.4,59.5z M236.1,214.7l10.5,61.4l-55.2-29l-55.2,29l10.5-61.4l-44.6-43.5
		l61.7-9l27.6-55.9l27.6,55.9l61.7,9L236.1,214.7z"/>
</g>
</svg>
