<?xml version="1.0" encoding="utf-8"?>
<!-- Generator: Adobe Illustrator 19.2.0, SVG Export Plug-In . SVG Version: 6.00 Build 0)  -->
<svg version="1.1" id="Icons" xmlns="http://www.w3.org/2000/svg" xmlns:xlink="http://www.w3.org/1999/xlink" x="0px" y="0px"
	 viewBox="0 0 336 336" style="enable-background:new 0 0 336 336;" xml:space="preserve">
<style type="text/css">
	.st0{fill:#FFFFFF;stroke:#FFFFFF;stroke-width:8.6204;stroke-miterlimit:10;}
</style>
<g>
	<path class="st0" d="M167.5,12.6C81.2,12.6,11,82.8,11,169.1c0,86.3,70.2,156.5,156.5,156.5S324,255.4,324,169.1
		C324,82.8,253.8,12.6,167.5,12.6z M167.5,316.6C86.2,316.6,20,250.4,20,169.1C20,87.8,86.2,21.6,167.5,21.6S315,87.8,315,169.1
		C315,250.4,248.8,316.6,167.5,316.6z"/>
	<path class="st0" d="M113.7,185.3c-1.4,6.5-2.7,12.6-3.7,18.5h-0.2c-0.8-5.8-1.9-11.8-3.3-18.1l-5.3-24.6H91.1l-5.8,24.2
		c-1.5,6.8-3,13.1-3.9,18.8h-0.2c-0.9-5.3-2.1-12.2-3.5-18.7L72.7,161H62.2l13.1,53.5h10.6l6.2-25.2c1.6-6.1,2.6-11.3,3.6-17h0.2
		c0.6,5.8,1.6,10.9,2.9,17l5.6,25.2h10.5l14.4-53.5h-9.9L113.7,185.3z"/>
	<path class="st0" d="M186.5,185.3c-1.4,6.5-2.7,12.6-3.7,18.5h-0.2c-0.8-5.8-1.9-11.8-3.3-18.1l-5.3-24.6h-10.2l-5.8,24.2
		c-1.5,6.8-3,13.1-3.9,18.8H154c-0.9-5.3-2.1-12.2-3.5-18.7l-5.1-24.3H135l13.1,53.5h10.6l6.2-25.2c1.6-6.1,2.6-11.3,3.6-17h0.2
		c0.6,5.8,1.6,10.9,2.9,17l5.6,25.2h10.5L202,161h-9.9L186.5,185.3z"/>
	<path class="st0" d="M264.9,161l-5.6,24.2c-1.4,6.5-2.7,12.6-3.7,18.5h-0.2c-0.8-5.8-1.9-11.8-3.3-18.1l-5.3-24.6h-10.2l-5.8,24.2
		c-1.5,6.8-3,13.1-3.9,18.8h-0.2c-0.9-5.3-2.1-12.2-3.5-18.7l-5.1-24.3h-10.4l13.1,53.5h10.6l6.2-25.2c1.6-6.1,2.6-11.3,3.6-17h0.2
		c0.6,5.8,1.6,10.9,2.9,17l5.6,25.2h10.5l14.4-53.5H264.9z"/>
	<path class="st0" d="M266.5,92.3l-0.3-0.4c0,0,0,0,0,0c-23.4-30.1-59.9-49.5-100.8-49.5c-42,0-79.3,20.4-102.6,51.8
		c0,0-0.1,0-0.1,0l-0.3,0.6c-15.5,21.1-24.6,47.1-24.6,75.3c0,70.4,57.3,127.6,127.6,127.6c70.4,0,127.6-57.3,127.6-127.6
		C292.9,140.8,283,113.9,266.5,92.3z M260.5,95.2c-12.1,7.1-24.7,12.7-37.6,16.9c-3.3-12.9-7.7-25.9-13.2-38.8
		c6.7-2.1,12.3-4.8,16.4-8.1C239.3,73,251,83.2,260.5,95.2z M219.8,61.8c-3.4,2.2-7.7,4.1-12.7,5.6c-2-4.4-4.1-8.9-6.4-13.3
		C207.3,56.2,213.7,58.7,219.8,61.8z M168.5,48.9c8.1,0.2,16,1.2,23.6,3c3.1,5.7,5.9,11.5,8.6,17.2c-9.6,2.2-20.8,3.4-32.2,3.5V48.9
		z M168.5,79.2c12.3-0.2,24.5-1.6,34.8-4.1c5.6,13,10,25.9,13.3,38.9c-15.7,4.5-31.8,6.8-48.1,7.1V79.2z M162.1,48.9v23.7
		c-10.9-0.2-21.7-1.4-31-3.4c2.7-5.9,5.6-11.8,8.8-17.6C147,50,154.5,49.1,162.1,48.9z M162.1,79.2v41.9
		c-15.6-0.3-31.4-2.3-47.1-6.3c3.3-13.2,7.8-26.4,13.4-39.5C138.6,77.7,150.3,79,162.1,79.2z M131.4,53.7c-2.4,4.6-4.6,9.2-6.7,13.9
		c-5.4-1.6-10.1-3.5-13.7-5.8C117.5,58.5,124.3,55.8,131.4,53.7z M104.6,65.2c4.4,3.4,10.4,6.2,17.5,8.3
		c-5.6,13.1-10.1,26.3-13.4,39.4c-13.5-3.9-26.9-9.2-40.2-15.8C78.3,84.3,90.6,73.4,104.6,65.2z M162.1,291.2
		c-7.6-0.2-15-1.1-22.2-2.6c-8.3-15.4-14.9-30.8-20-46.2c14,3.4,28.2,5.2,42.2,5.5V291.2z M168.5,291.2v-43.2
		c14.5-0.1,29-1.8,43.3-5.2c-5,15.2-11.5,30.3-19.7,45.4C184.5,289.9,176.6,290.9,168.5,291.2z M278,214.5
		c-13.5,34.1-42,60.7-77.4,71.5c7.7-15,13.9-30,18.6-45.1c13.5-3.7,26.7-8.9,39.7-15.5h-15.2c-7.4,3.2-14.8,5.9-22.3,8.1
		c0.8-2.7,1.4-5.4,2-8.1h-6.7c-0.8,3.4-1.7,6.8-2.7,10.1c-15,3.8-30.2,5.8-45.6,5.9v-16h-6.5v16c-14.8-0.4-29.7-2.5-44.5-6.3
		c-0.9-3.2-1.7-6.4-2.5-9.7h-6.7c0.6,2.5,1.2,5.1,1.9,7.6c-7.2-2.1-14.3-4.7-21.4-7.6H73.1c13,6.3,26.2,11.4,39.4,15
		c4.8,15.3,11.1,30.7,19,46c-36.1-10.6-65.3-37.5-79-72.2c3.2,1.9,6.4,3.8,9.7,5.6L60,211c-3.6-2.1-7.3-4.3-10.9-6.7
		c-3.2-10.9-5-22.4-5-34.3c0-4.8,0.3-9.5,0.8-14.1c0.5-3.3,0.5-3.3,1-6.9c3-17,9.5-32.8,18.8-46.6c14,7.1,28.2,12.7,42.5,16.8
		c-2.3,10.3-3.8,20.7-4.7,31h6.5c0.9-9.7,2.3-19.5,4.5-29.2c16.2,4.2,32.5,6.3,48.6,6.6v22.6h6.5v-22.7c16.9-0.3,33.5-2.7,49.7-7.2
		c2.2,10,3.7,19.9,4.6,29.9h6.5c-0.9-10.6-2.5-21.2-4.9-31.8c13.8-4.4,27.2-10.4,40-18c10.1,14.3,17.1,30.9,20.3,48.8
		c1.2,6.8,1.8,10.8,1.8,20.9c0,11.9-1.8,23.5-5,34.4c-4.2,2.9-8.5,5.6-12.7,8.1l-2.4,8.8C270.3,219.2,274.2,216.9,278,214.5z"/>
</g>
</svg>
