<?xml version="1.0" encoding="utf-8"?>
<!-- Generator: Adobe Illustrator 19.2.0, SVG Export Plug-In . SVG Version: 6.00 Build 0)  -->
<svg version="1.1" id="圖層_1" xmlns="http://www.w3.org/2000/svg" xmlns:xlink="http://www.w3.org/1999/xlink" x="0px" y="0px"
	 viewBox="0 0 180 180" style="enable-background:new 0 0 180 180;" xml:space="preserve">
<style type="text/css">
	.st0{fill:#FFFFFF;}
</style>
<g>
	<path class="st0" d="M97.2,168.4c0,4.1-3.3,7.5-7.5,7.5c-4.1,0-7.5-3.4-7.5-7.5c0-4.1,3.3-7.5,7.5-7.5
		C93.9,160.9,97.2,164.3,97.2,168.4z"/>
	<path class="st0" d="M56.8,161.6c-2.1,3.6-6.6,4.8-10.2,2.7c-3.6-2.1-4.8-6.6-2.7-10.2c2.1-3.6,6.6-4.8,10.2-2.7
		C57.7,153.4,58.9,158,56.8,161.6z"/>
	<path class="st0" d="M25.3,135.4c-3.6,2.1-8.1,0.8-10.2-2.7c-2.1-3.6-0.8-8.1,2.7-10.2c3.6-2.1,8.1-0.8,10.2,2.7
		C30.1,128.8,28.8,133.4,25.3,135.4z"/>
	<path class="st0" d="M11,97c-4.1,0-7.5-3.3-7.5-7.5c0-4.1,3.4-7.5,7.5-7.5c4.1,0,7.5,3.4,7.5,7.5C18.5,93.7,15.1,97,11,97z"/>
	<path class="st0" d="M17.9,56.6c-3.6-2.1-4.8-6.6-2.7-10.2c2.1-3.6,6.6-4.8,10.2-2.7c3.6,2.1,4.8,6.6,2.7,10.2
		C26,57.5,21.5,58.7,17.9,56.6z"/>
	<path class="st0" d="M44.1,25.1c-2.1-3.6-0.8-8.1,2.8-10.2c3.6-2.1,8.1-0.8,10.2,2.8c2,3.6,0.8,8.1-2.8,10.2
		C50.7,29.9,46.2,28.6,44.1,25.1z"/>
	<path class="st0" d="M82.6,10.9c0-4.1,3.4-7.5,7.5-7.4c4.1,0,7.5,3.4,7.4,7.5c0,4.1-3.4,7.4-7.5,7.4C85.9,18.3,82.5,15,82.6,10.9z"
		/>
	<path class="st0" d="M123,17.8c2.1-3.6,6.6-4.8,10.2-2.7c3.6,2.1,4.8,6.6,2.7,10.2c-2.1,3.6-6.6,4.8-10.2,2.7
		C122.1,26,120.9,21.4,123,17.8z"/>
	<path class="st0" d="M154.4,44.1c3.6-2,8.1-0.8,10.2,2.8c2,3.6,0.8,8.1-2.8,10.2c-3.6,2-8.1,0.8-10.2-2.8
		C149.6,50.7,150.9,46.1,154.4,44.1z"/>
	<path class="st0" d="M168.6,82.5c4.1,0,7.4,3.4,7.4,7.5c0,4.1-3.4,7.4-7.5,7.4c-4.1,0-7.4-3.4-7.4-7.5
		C161.1,85.9,164.5,82.5,168.6,82.5z"/>
	<path class="st0" d="M161.6,122.9c3.6,2.1,4.8,6.6,2.7,10.2c-2.1,3.6-6.7,4.8-10.2,2.7c-3.6-2.1-4.8-6.6-2.7-10.2
		C153.4,122.1,158,120.8,161.6,122.9z"/>
	<path class="st0" d="M135.3,154.4c2,3.6,0.8,8.2-2.8,10.2c-3.6,2-8.1,0.8-10.2-2.8c-2.1-3.6-0.8-8.1,2.8-10.2
		C128.7,149.5,133.2,150.8,135.3,154.4z"/>
	<g>
		<path class="st0" d="M89.8,143.9c-29.9,0-54.2-24.3-54.2-54.2c0-29.9,24.3-54.2,54.2-54.2c29.9,0,54.2,24.3,54.2,54.2
			C144,119.6,119.7,143.9,89.8,143.9z M89.8,42.8C64,42.8,43,63.8,43,89.7c0,25.8,21,46.8,46.8,46.8c25.8,0,46.8-21,46.8-46.8
			C136.6,63.8,115.6,42.8,89.8,42.8z"/>
	</g>
	<g>
		<path class="st0" d="M107.3,140.7c-0.7,0-1.3-0.2-2-0.6c-1.7-1.1-2.3-3.4-1.2-5.1c7.7-12.3,12-28.5,12-45.6
			c0-16.9-4.2-32.9-11.8-45.2c-1.1-1.8-0.5-4,1.2-5.1c1.7-1.1,4-0.5,5.1,1.2c8.3,13.4,12.9,30.9,12.9,49.1c0,18.4-4.7,36-13.1,49.5
			C109.7,140.1,108.5,140.7,107.3,140.7z"/>
	</g>
	<g>
		<path class="st0" d="M73.5,140.7c-1.2,0-2.4-0.6-3.2-1.7c-8.5-13.5-13.1-31.1-13.1-49.5c0-18.2,4.6-35.7,12.9-49.1
			c1.1-1.8,3.4-2.3,5.1-1.2c1.7,1.1,2.3,3.4,1.2,5.1c-7.6,12.3-11.8,28.4-11.8,45.2c0,17,4.3,33.2,12,45.6c1.1,1.7,0.6,4-1.2,5.1
			C74.9,140.6,74.2,140.7,73.5,140.7z"/>
	</g>
	<g>
		<path class="st0" d="M89.8,143.9c-2.1,0-3.7-1.7-3.7-3.7v-101c0-2,1.7-3.7,3.7-3.7c2,0,3.7,1.7,3.7,3.7v101
			C93.5,142.2,91.8,143.9,89.8,143.9z"/>
	</g>
	<g>
		<path class="st0" d="M140.3,93.4H39.2c-2,0-3.7-1.7-3.7-3.7c0-2.1,1.7-3.7,3.7-3.7h101.1c2,0,3.7,1.7,3.7,3.7
			C144,91.7,142.4,93.4,140.3,93.4z"/>
	</g>
	<g>
		<path class="st0" d="M134.3,69.4H47c-2,0-3.7-1.7-3.7-3.7c0-2,1.7-3.7,3.7-3.7h87.3c2.1,0,3.7,1.7,3.7,3.7
			C138,67.7,136.3,69.4,134.3,69.4z"/>
	</g>
	<g>
		<path class="st0" d="M133.4,117.4h-88c-2.1,0-3.7-1.7-3.7-3.7c0-2,1.7-3.7,3.7-3.7h88c2,0,3.7,1.7,3.7,3.7
			C137.1,115.7,135.4,117.4,133.4,117.4z"/>
	</g>
</g>
</svg>
