<?xml version="1.0" encoding="utf-8"?>
<!-- Generator: Adobe Illustrator 19.2.0, SVG Export Plug-In . SVG Version: 6.00 Build 0)  -->
<svg version="1.1" id="圖層_1" xmlns="http://www.w3.org/2000/svg" xmlns:xlink="http://www.w3.org/1999/xlink" x="0px" y="0px"
	 viewBox="0 0 82 82" style="enable-background:new 0 0 82 82;" xml:space="preserve">
<style type="text/css">
	.st0{fill:#E79963;}
	.st1{display:none;}
	.st2{fill:#FFDA7A;}
	.st3{fill:#484F59;}
	.st4{fill:#FFFFFF;}
	.st5{fill:#353F49;}
</style>
<rect x="-1.5" y="-1.8" class="st0" width="85" height="85.8"/>
<g id="bg" class="st1">
</g>
<g id="export" class="st1">
</g>
<g id="icons">
	<g>
		<path class="st2" d="M56.5,40.5c0-8.4-6.9-15.3-15.3-15.3S25.9,32,25.9,40.5c0,5.8,3.3,11,8.2,13.6v4.3c0,0.9,0.8,1.7,1.7,1.7
			h10.8c0.9,0,1.7-0.8,1.7-1.7V54C53.1,51.5,56.5,46.3,56.5,40.5z"/>
		<g>
			<path class="st3" d="M38.1,59.1C38,59.1,38,59.1,38.1,59.1l-5.4-16.3c0-0.1,0-0.2,0.1-0.2c0.1,0,0.2,0,0.2,0.1L38.3,59
				C38.3,59,38.2,59.1,38.1,59.1L38.1,59.1z"/>
			<path class="st3" d="M44.2,59.1L44.2,59.1c-0.1,0-0.2-0.1-0.1-0.2l5.3-16.3c0-0.1,0.1-0.1,0.2-0.1c0.1,0,0.1,0.1,0.1,0.2L44.4,59
				C44.3,59.1,44.2,59.1,44.2,59.1z"/>
			<path class="st4" d="M47.1,41.2c-0.6,0-1.1,0.3-1.5,0.6c-0.4-0.3-0.9-0.6-1.5-0.6c-0.6,0-1.1,0.3-1.5,0.6
				c-0.4-0.3-0.9-0.6-1.5-0.6c-0.6,0-1.1,0.3-1.5,0.6c-0.4-0.3-0.9-0.6-1.5-0.6c-0.6,0-1.1,0.3-1.5,0.6c-0.4-0.3-0.9-0.6-1.5-0.6
				c-1.3,0-2.3,1.1-2.4,2.6c0.1,0,0.2-0.1,0.3-0.1c0.1-1.2,0.9-2.1,2.1-2.1c0.4,0,0.9,0.2,1.3,0.4c-0.4,0.5-0.7,1.1-0.7,1.8
				s0.3,1.4,0.7,1.8c0.1,0.1,0.2,0.2,0.3,0.3c0.1-0.1,0.2-0.2,0.3-0.3c0.4-0.5,0.7-1.1,0.7-1.8s-0.3-1.4-0.7-1.8
				c0.3-0.3,0.8-0.4,1.3-0.4c0.4,0,0.9,0.2,1.3,0.4c-0.4,0.5-0.7,1.1-0.7,1.8s0.3,1.4,0.7,1.8c0.1,0.1,0.2,0.2,0.3,0.3
				c0.1-0.1,0.2-0.2,0.3-0.3c0.4-0.5,0.7-1.1,0.7-1.8s-0.3-1.4-0.7-1.8c0.3-0.3,0.8-0.4,1.3-0.4c0.4,0,0.9,0.2,1.3,0.4
				c-0.4,0.5-0.7,1.1-0.7,1.8s0.3,1.4,0.7,1.8c0.1,0.1,0.2,0.2,0.3,0.3c0.1-0.1,0.2-0.2,0.3-0.3c0.4-0.5,0.7-1.1,0.7-1.8
				s-0.3-1.4-0.7-1.8c0.3-0.3,0.8-0.4,1.3-0.4c0.4,0,0.9,0.2,1.3,0.4c-0.4,0.5-0.7,1.1-0.7,1.8s0.3,1.4,0.7,1.8
				c0.1,0.1,0.2,0.2,0.3,0.3c0.1-0.1,0.2-0.2,0.3-0.3c0.4-0.5,0.7-1.1,0.7-1.8s-0.3-1.4-0.7-1.8c0.3-0.3,0.8-0.4,1.3-0.4
				c1.1,0,2,0.9,2.1,2.1c0.1,0,0.2,0,0.3,0C49.4,42.2,48.3,41.2,47.1,41.2z M37.2,43.8c0,0.6-0.3,1.2-0.6,1.6
				C36.3,45,36,44.5,36,43.8c0-0.7,0.3-1.2,0.6-1.6C37.1,42.6,37.2,43.1,37.2,43.8z M40.2,43.8c0,0.6-0.3,1.2-0.6,1.6
				C39.3,45,39,44.5,39,43.8c0-0.7,0.3-1.2,0.6-1.6C40,42.6,40.2,43.1,40.2,43.8z M43.3,43.8c0,0.6-0.3,1.2-0.6,1.6
				c-0.3-0.4-0.6-0.9-0.6-1.6c0-0.7,0.3-1.2,0.6-1.6C43,42.6,43.3,43.1,43.3,43.8z M46.2,43.8c0,0.6-0.3,1.2-0.6,1.6
				C45.2,45,45,44.5,45,43.8c0-0.7,0.3-1.2,0.6-1.6C46,42.6,46.2,43.1,46.2,43.8z"/>
		</g>
		<g>
			<polygon class="st5" points="33.2,72.8 49.1,72.8 49.1,70.2 33.2,71.4 			"/>
			<polygon class="st5" points="49.1,59.6 33.2,59.6 33.2,62.2 49.1,61 			"/>
			<polygon class="st5" points="33.2,70 49.1,68.8 49.1,67.6 33.2,68.8 			"/>
			<polygon class="st5" points="33.2,67.4 49.1,66.2 49.1,65.1 33.2,66.3 			"/>
			<polygon class="st5" points="33.2,63.7 33.2,64.8 49.1,63.6 49.1,62.5 			"/>
			<polygon class="st4" points="49.1,61 33.2,62.2 33.2,63.7 49.1,62.5 			"/>
			<polygon class="st4" points="33.2,66.3 49.1,65.1 49.1,63.6 33.2,64.8 			"/>
			<polygon class="st4" points="33.2,68.8 49.1,67.6 49.1,66.2 33.2,67.4 			"/>
			<polygon class="st4" points="33.2,71.4 49.1,70.2 49.1,68.8 33.2,70 			"/>
		</g>
		<rect x="35.8" y="72.6" class="st3" width="10.7" height="2.2"/>
		<g>
			<path class="st4" d="M40.7,17.3c-0.2,0-0.3-0.2-0.3-0.3V9.8c0-0.2,0.2-0.3,0.3-0.3S41,9.6,41,9.8v7.1
				C41,17.1,40.8,17.3,40.7,17.3z"/>
			<path class="st4" d="M29.4,20.5c-0.1,0-0.3-0.1-0.3-0.2l-3.6-6.2c-0.1-0.2,0-0.3,0.1-0.4c0.2-0.1,0.3,0,0.4,0.1l3.5,6.2
				C29.7,20.2,29.6,20.4,29.4,20.5C29.5,20.5,29.4,20.5,29.4,20.5z"/>
			<path class="st4" d="M21.2,29c-0.1,0-0.1,0-0.2-0.1l-6.2-3.5c-0.2-0.1-0.2-0.3-0.1-0.4c0.1-0.2,0.3-0.2,0.4-0.1l6.2,3.5
				c0.2,0.1,0.2,0.3,0.1,0.4C21.4,29,21.3,29,21.2,29z"/>
			<path class="st4" d="M18.3,40.5h-7.1c-0.2,0-0.3-0.2-0.3-0.3s0.2-0.3,0.3-0.3h7.1c0.2,0,0.3,0.2,0.3,0.3
				C18.7,40.3,18.5,40.5,18.3,40.5z"/>
			<path class="st4" d="M15.5,55.3c-0.1,0-0.3-0.1-0.3-0.2c-0.1-0.2,0-0.3,0.1-0.4l6.2-3.5c0.2-0.1,0.3,0,0.4,0.1
				c0.1,0.2,0,0.3-0.1,0.4l-6.2,3.5C15.6,55.3,15.5,55.3,15.5,55.3z"/>
			<path class="st4" d="M26.6,66.2c-0.1,0-0.1,0-0.2-0.1c-0.2-0.1-0.2-0.3-0.1-0.4l3.5-6.2c0.1-0.2,0.3-0.2,0.4-0.1
				c0.2,0.1,0.2,0.3,0.1,0.4L26.8,66C26.8,66.1,26.7,66.2,26.6,66.2z"/>
			<path class="st4" d="M56.5,65.8c-0.1,0-0.3-0.1-0.3-0.2l-3.5-6.2c-0.1-0.2,0-0.3,0.1-0.4c0.2-0.1,0.3,0,0.4,0.1l3.5,6.2
				c0.1,0.2,0,0.3-0.1,0.4C56.6,65.7,56.5,65.8,56.5,65.8z"/>
			<path class="st4" d="M67.2,54.6c-0.1,0-0.1,0-0.2-0.1L60.9,51c-0.2-0.1-0.2-0.3-0.1-0.4s0.3-0.2,0.4-0.1l6.2,3.5
				c0.2,0.1,0.2,0.3,0.1,0.4C67.5,54.6,67.3,54.6,67.2,54.6z"/>
			<path class="st4" d="M71,39.6h-7.1c-0.2,0-0.3-0.2-0.3-0.3c0-0.2,0.2-0.3,0.3-0.3H71c0.2,0,0.3,0.2,0.3,0.3
				C71.4,39.4,71.2,39.6,71,39.6z"/>
			<path class="st4" d="M60.6,28.3c-0.1,0-0.3-0.1-0.3-0.2c-0.1-0.2,0-0.3,0.1-0.4l6.2-3.5c0.2-0.1,0.3,0,0.4,0.1
				c0.1,0.2,0,0.3-0.1,0.4l-6.2,3.6C60.8,28.3,60.7,28.3,60.6,28.3z"/>
			<path class="st4" d="M52.2,20.1c-0.1,0-0.1,0-0.2-0.1c-0.2-0.1-0.2-0.3-0.1-0.4l3.5-6.2c0.1-0.2,0.3-0.2,0.4-0.1
				c0.2,0.1,0.2,0.3,0.1,0.4l-3.5,6.2C52.4,20,52.3,20.1,52.2,20.1z"/>
		</g>
	</g>
</g>
</svg>
