<?xml version="1.0" encoding="utf-8"?>
<!-- Generator: Adobe Illustrator 19.2.0, SVG Export Plug-In . SVG Version: 6.00 Build 0)  -->
<svg version="1.1" id="圖層_1" xmlns="http://www.w3.org/2000/svg" xmlns:xlink="http://www.w3.org/1999/xlink" x="0px" y="0px"
	 viewBox="0 0 82 82" style="enable-background:new 0 0 82 82;" xml:space="preserve">
<style type="text/css">
	.st0{fill:#CA9696;}
	.st1{display:none;}
	.st2{fill:#072055;}
	.st3{opacity:0.41;fill:#FFFFFF;enable-background:new    ;}
	.st4{fill:#E5E5E5;}
	.st5{fill:#F2F2F2;}
	.st6{fill:#FF8000;}
	.st7{fill:#E7B893;}
	.st8{fill:#62C4DC;}
	.st9{opacity:0.25;fill:#4D4D4D;enable-background:new    ;}
</style>
<rect x="-3.8" y="-3.3" class="st0" width="91.8" height="89.8"/>
<g id="bg" class="st1">
</g>
<g id="export" class="st1">
</g>
<g id="icons">
	<g>
		<path class="st2" d="M53.7,7.8h-30c-0.9,0-1.7,0.2-2.5,0.5c-0.4,0.2-0.7,0.3-1.1,0.5l0,0c-0.3,0.2-0.5,0.3-0.7,0.5
			c-0.3,0.2-0.5,0.4-0.6,0.5c-0.1,0.1-0.2,0.2-0.3,0.3c-0.1,0.1-0.2,0.2-0.2,0.3c-0.2,0.3-0.4,0.5-0.5,0.8c-0.1,0.2-0.1,0.4-0.2,0.5
			c-0.1,0.3-0.2,0.6-0.3,1.1c0,0.2,0,0.4,0,0.5v10.3l0,0v43.8l0,0v2.9c0,0.1,0,0.2,0,0.2l0,0c0,0.2,0,0.3,0,0.5c0,0.2,0,0.3,0.1,0.5
			c0,0,0,0,0,0.1s0.1,0.3,0.1,0.4s0.1,0.2,0.1,0.3c0.1,0.2,0.1,0.3,0.2,0.4c0.2,0.4,0.4,0.6,0.6,0.9c0.1,0.2,0.3,0.3,0.4,0.5
			c0.2,0.1,0.3,0.3,0.5,0.4s0.3,0.3,0.5,0.4c0.4,0.2,0.6,0.5,1,0.5c0.4,0.2,0.7,0.3,1.2,0.5c0.6,0.2,1.3,0.3,1.9,0.3h30
			c0.6,0,1.3-0.1,1.9-0.3c0.5-0.1,0.8-0.3,1.2-0.5c0.2-0.1,0.4-0.2,0.5-0.3c0.2-0.1,0.4-0.2,0.5-0.4c0.1-0.1,0.3-0.2,0.4-0.3
			c0.3-0.3,0.5-0.5,0.8-0.8c0.1-0.1,0.2-0.3,0.3-0.5c0.1-0.1,0.2-0.3,0.2-0.4c0.1-0.2,0.2-0.3,0.2-0.5c0.1-0.2,0.1-0.4,0.2-0.5
			c0.1-0.2,0.1-0.4,0.1-0.5c0-0.3,0.1-0.5,0.1-0.7v-57C60,10.2,57.2,7.8,53.7,7.8z M31.9,11.6h13.5c0.5,0,0.8,0.3,0.8,0.6
			c0,0.4-0.4,0.6-0.8,0.6H31.9c-0.5,0-0.8-0.3-0.8-0.6C31.1,11.8,31.4,11.6,31.9,11.6z M57.1,67H20.2V33.3l0,0V16.5h36.9V67z"/>
		<path class="st3" d="M31.2,12.2c0,0.4,0.4,0.6,0.8,0.6h11.3l-2,3.7H20.2v16.7l0,0V56l-3,5.5v-38l0,0V13.3c0-0.2,0-0.4,0-0.5
			c0-0.4,0.1-0.7,0.3-1.1c0.1-0.2,0.2-0.4,0.3-0.5c0.1-0.3,0.3-0.5,0.5-0.7c0.1-0.1,0.1-0.2,0.2-0.3c0.1-0.1,0.2-0.2,0.3-0.3
			c0.2-0.2,0.5-0.4,0.6-0.5s0.5-0.4,0.7-0.5l0,0c0.4-0.2,0.7-0.4,1.1-0.5c0.8-0.3,1.6-0.5,2.5-0.5h22.3l-2,3.8H32
			C31.5,11.6,31.2,11.8,31.2,12.2z"/>
		<path class="st4" d="M46.2,12.2c0,0.4-0.4,0.6-0.8,0.6H31.9c-0.5,0-0.8-0.3-0.8-0.6s0.4-0.6,0.8-0.6h13.5
			C45.8,11.6,46.2,11.8,46.2,12.2z"/>
		<polygon class="st5" points="57.1,16.5 57.1,67 20.2,67 20.2,33.3 20.1,33.3 20.1,16.5 		"/>
		<path class="st6" d="M48.4,43.5c0-0.1-0.1-0.1-0.1-0.2c-0.1-0.1-0.1-0.1-0.2-0.2c0,0,0,0-0.1,0l-9.1-4.3c-0.2-0.1-0.5-0.1-0.7,0
			l-9,4.3c0,0,0,0-0.1,0c-0.1,0-0.2,0.1-0.2,0.2s-0.1,0.1-0.1,0.2c-0.1,0.2-0.1,0.3-0.1,0.5v11.9c0,0.4,0.2,0.6,0.5,0.8l9,4.2
			l0.1,0.1c0.1,0,0.1,0,0.2,0.1c0.1,0,0.2,0,0.2,0c0.1,0,0.2,0,0.2,0c0.1,0,0.2-0.1,0.3-0.1l9-4.2c0.3-0.2,0.5-0.5,0.5-0.8v-12
			C48.6,43.8,48.5,43.7,48.4,43.5z M30.3,45.2l7.4,3.4v10l-7.4-3.4V45.2z M38.7,47.2L38.7,47.2l-7.1-3.3h-0.1l7.1-3.3l7.1,3.3
			l-3.1,1.4L38.7,47.2z M46.9,55.4l-7.4,3.4v-10l7.4-3.4V55.4z"/>
		<path class="st7" d="M75.4,69.9L75.4,69.9c-0.1-0.4-0.1-0.6-0.2-0.9c-0.3-1.4-0.6-3-0.5-4.4c0-1.3-0.2-4-0.5-6.1
			c-0.2-1.2-0.2-2.5-0.8-3.6c-0.7-1.3-0.9-2.5-1.4-3.9c-0.8-2-1.4-3.7-1.9-5.8c-0.5-2.4-2.2-4-3.6-6.1c-0.6-1-0.9-3.1-1.4-5
			c-0.5-1.6-1-3.2-2.1-3.8c-0.5-0.3-1-0.4-1.6-0.2h-0.1c-0.5,0.1-1,0.4-1.4,0.9l0,0c0,0,0,0,0,0.1c-1.1,1.4-1.6,3.4-1.6,5.8
			c0,2.1,0.5,4.3,1.2,6.2c0.1,0.3,0.2,0.5,0.4,0.8v2.3c0,0,0,0.1,0.1,0.1v23.9c0,0.3,0,0.5-0.1,0.7c0,0.2-0.1,0.4-0.1,0.5
			s-0.1,0.4-0.2,0.5c-0.1,0.2-0.1,0.3-0.2,0.5c-0.1,0.1-0.2,0.3-0.2,0.4c-0.1,0.2-0.2,0.3-0.3,0.5c-0.3,0.3-0.5,0.5-0.8,0.8
			c-0.1,0.1-0.3,0.2-0.4,0.3c-0.2,0.2-0.4,0.3-0.5,0.4c-0.2,0.1-0.4,0.2-0.5,0.3c-0.4,0.2-0.7,0.3-1.2,0.5c-0.6,0.2-1.3,0.3-1.9,0.3
			h-21l1.5,1.4c2.4,2.4,5,5,6.9,6.6c3.3,2.9,4.5,3.7,7.9,6c0.4,0.5,0.6,0.9,1,1.4c1,1.4,1.7,2.5,2.4,3.7c0,0.1,0.1,0.2,0.1,0.2
			c0.1,0.1,0.1,0.3,0.2,0.4l27.6-15.5C78.3,76.9,76.3,73.5,75.4,69.9z"/>
		<path class="st7" d="M14.1,38.1c0.8-3,1.3-3.5,2.5-3.6H17c2.2,0.2,3.7,2.1,3.5,4.3c-0.2,1.8-1.5,3.3-3.3,3.4
			c-0.4,0.1-0.6,0.1-1,0.1l-0.6-0.1l0,0C14.7,42,13.3,41.2,14.1,38.1z"/>
		<path class="st7" d="M13.5,46.5c0.4-3.3,0.7-3.8,2.1-4.1H16c2.3-0.1,4.2,1.6,4.3,3.8c0.1,1.9-1.2,3.5-2.9,4.1
			c-0.3,0.1-0.6,0.2-1,0.2h-0.6l0,0C14.7,50.6,13.2,49.9,13.5,46.5z"/>
		<path class="st7" d="M13.4,56.9c0.3-2.9,0.5-3.4,1.7-3.7h0.3c2-0.2,3.7,1.3,3.9,3.3c0.2,1.7-0.9,3.2-2.4,3.7
			c-0.3,0.1-0.5,0.2-0.8,0.2l-0.5,0l0,0C14.6,60.4,13.2,59.9,13.4,56.9z"/>
		<path class="st7" d="M15.1,63.5c-0.4-2.4-0.2-3,0.7-3.4l0.3-0.1c1.6-0.5,3.4,0.4,3.9,2c0.5,1.4-0.2,2.9-1.4,3.6
			c-0.2,0.1-0.5,0.3-0.6,0.4l-0.5,0.2l0,0C16.8,66.3,15.5,66.1,15.1,63.5z"/>
		<path d="M17.2,51.6v0.5l0,0V51.6L17.2,51.6z"/>
		<path class="st8" d="M34.7,33.5c0.9,0,1.4-0.5,1.4-1.3v-0.8c0-1.4-0.7-2-2.1-2v-1.7c0.7,0,1.4-0.2,1.7-0.6
			c0.4-0.4,0.5-0.9,0.5-1.6v-0.3c0-0.8-0.4-1.3-1.2-1.3c-0.5,0-0.7,0.2-0.9,0.5S34,24.9,34,25.3v0.4h-1.9v-0.3
			c0-0.9,0.3-1.7,0.7-2.3c0.5-0.6,1.3-1,2.3-1c0.9,0,1.6,0.3,2.3,0.9c0.5,0.5,0.7,1.3,0.7,2.1v0.5c0,0.8-0.3,1.5-0.7,2.1
			c-0.2,0.3-0.5,0.5-0.7,0.6c0.5,0.4,1.1,0.8,1.4,1.5c0.2,0.4,0.3,0.7,0.3,1.3v1.1c0,1-0.4,1.8-1,2.4c-0.6,0.6-1.4,0.9-2.3,0.9
			c-0.9,0-1.6-0.3-2.3-0.9s-0.9-1.4-0.9-2.2v-0.4l1.9-0.2v0.5c0,0.4,0.2,0.6,0.4,0.8C34.1,33.5,34.3,33.5,34.7,33.5z"/>
		<path class="st8" d="M46,32.3c0,0.9-0.3,1.6-0.9,2.3s-1.4,0.9-2.2,0.9h-3.1V22.2h3.1c0.9,0,1.6,0.3,2.2,0.9
			c0.6,0.6,0.9,1.4,0.9,2.2V32.3z M41.7,33.5h1.2c0.3,0,0.5-0.1,0.8-0.4c0.2-0.3,0.4-0.5,0.4-0.8v-6.9c0-0.3-0.1-0.5-0.4-0.8
			c-0.2-0.2-0.5-0.4-0.8-0.4h-1.2V33.5z"/>
		<path class="st9" d="M58.2,74.2l-13,12.9c-1.2-0.9-2.4-1.8-4.2-3.4c-1.9-1.6-4.4-4.3-6.9-6.6l-1.5-1.4h21c0.6,0,1.3-0.1,1.9-0.3
			c0.5-0.1,0.8-0.3,1.2-0.5c0.2-0.1,0.4-0.2,0.5-0.3c0.2-0.1,0.4-0.3,0.5-0.4C57.9,74.4,58,74.3,58.2,74.2z"/>
	</g>
</g>
</svg>
