<?xml version="1.0" encoding="utf-8"?>
<!-- Generator: Adobe Illustrator 19.2.0, SVG Export Plug-In . SVG Version: 6.00 Build 0)  -->
<svg version="1.1" id="圖層_1" xmlns="http://www.w3.org/2000/svg" xmlns:xlink="http://www.w3.org/1999/xlink" x="0px" y="0px"
	 viewBox="0 0 82 82" style="enable-background:new 0 0 82 82;" xml:space="preserve">
<style type="text/css">
	.st0{fill:#96CAC9;}
	.st1{display:none;}
	.st2{fill:#29447C;}
	.st3{fill:#DEDEDE;}
	.st4{fill:#FF8000;}
	.st5{fill:#FFD600;}
	.st6{fill:#F2F2F2;}
	.st7{fill:#FEA621;}
	.st8{fill:#072055;}
	.st9{opacity:0.41;fill:#FFFFFF;enable-background:new    ;}
	.st10{fill:#FFFFFF;}
</style>
<rect x="-1.8" y="-1.8" class="st0" width="85.7" height="85.7"/>
<g id="bg" class="st1">
</g>
<g id="export" class="st1">
</g>
<g id="icons">
	<g>
		<polygon class="st2" points="61.3,53.8 61.3,57.1 21.2,57.1 21.2,53.9 24.1,42.7 24.1,29.6 27,29.6 27,42.7 55.5,42.7 55.5,29.6 
			58.4,29.6 58.4,42.7 		"/>
		<path class="st3" d="M65.3,27.5l-0.1-0.1c-0.8-1.4-2.1-2.5-3.9-2.7c-0.2,0-0.3,0-0.6,0h-39c-0.2,0-0.3,0-0.6,0
			c-1.7,0.1-3,1.2-3.8,2.6l0,0l-0.3,0.6c-0.2,0.6-0.3,1.2-0.3,1.7v33.4c0,2.7,2.2,4.9,4.9,4.9h39c2.7,0,4.9-2.2,4.9-4.9V29.6
			C65.7,28.8,65.5,28.1,65.3,27.5z M21.2,57.1V29.6h40.1v27.5H21.2z M53.5,62.7h-6.5v-2.6h6.5V62.7z M61.5,62.7h-6.5v-2.6h6.5V62.7z
			"/>
		<rect x="55" y="60" class="st4" width="6.5" height="2.6"/>
		<rect x="47.1" y="60" class="st5" width="6.5" height="2.6"/>
		<g>
			<path class="st6" d="M42.4,46.5L42.4,46.5L42.4,46.5L42.4,46.5c0.1-0.8,0.6-1.5,1.3-1.7c-0.1-0.6-0.3-1-0.6-1.6
				c-0.7,0.3-1.5,0.3-2.1-0.3c-0.6-0.6-0.7-1.4-0.3-2.1c-0.5-0.3-1-0.5-1.5-0.6c-0.2,0.7-0.9,1.2-1.7,1.2l0,0h-0.1
				c-0.8,0-1.4-0.6-1.7-1.3c-0.6,0.1-1,0.3-1.6,0.6c0.3,0.7,0.3,1.5-0.3,2.1c-0.6,0.6-1.4,0.7-2.1,0.3c-0.3,0.5-0.5,1-0.7,1.6
				c0.8,0.2,1.2,0.9,1.2,1.7l0,0l0,0v0.1c0,0.8-0.6,1.4-1.3,1.7c0.1,0.6,0.3,1,0.6,1.6c0.7-0.3,1.5-0.3,2.1,0.3
				c0.6,0.6,0.7,1.4,0.3,2.1c0.5,0.3,1,0.5,1.5,0.6c0.2-0.7,0.9-1.2,1.7-1.2l0,0l0,0l0,0h0.1c0.8,0.1,1.4,0.6,1.6,1.3
				c0.6-0.1,1-0.3,1.6-0.6c-0.3-0.7-0.3-1.5,0.3-2.1c0.6-0.6,1.4-0.7,2.1-0.3c0.3-0.5,0.5-1,0.7-1.6C42.9,48,42.4,47.3,42.4,46.5z
				 M34.7,49c-1.4-1.4-1.4-3.8,0.1-5.2c1.4-1.4,3.8-1.4,5.2,0c1.4,1.4,1.4,3.8-0.1,5.2C38.5,50.5,36.2,50.5,34.7,49z"/>
			<path class="st7" d="M40,43.8c-1.4-1.4-3.7-1.4-5.2,0c-1.4,1.4-1.4,3.7-0.1,5.2c1.4,1.4,3.7,1.4,5.2,0.1
				C41.4,47.6,41.4,45.3,40,43.8z M38.6,47.7c-0.7,0.7-1.8,0.7-2.5,0c-0.7-0.7-0.7-1.8,0-2.5c0.7-0.7,1.8-0.7,2.5,0
				S39.3,47,38.6,47.7z"/>
			<path class="st6" d="M52.9,45.9c-0.6,0.1-1.1-0.3-1.4-0.8l0,0l0,0c-0.2-0.6,0-1.2,0.4-1.5c-0.2-0.3-0.6-0.6-0.9-0.9
				c-0.3,0.4-1,0.6-1.5,0.4c-0.6-0.2-0.8-0.8-0.8-1.4c-0.4-0.1-0.8-0.1-1.2,0c0.1,0.6-0.3,1.1-0.8,1.4c-0.6,0.2-1.2,0.1-1.5-0.4
				c-0.3,0.3-0.6,0.6-0.9,0.9c0.4,0.3,0.6,1,0.4,1.5c-0.2,0.6-0.8,0.9-1.4,0.8c-0.1,0.4-0.1,0.8,0,1.2c0.6-0.1,1.1,0.3,1.4,0.8l0,0
				l0,0c0.2,0.6,0.1,1.2-0.4,1.5c0.3,0.3,0.6,0.6,0.9,0.9c0.3-0.4,1-0.6,1.5-0.4c0.6,0.2,0.9,0.8,0.8,1.4c0.4,0.1,0.8,0.1,1.2,0
				c-0.1-0.6,0.3-1.1,0.8-1.3l0,0l0,0l0,0l0,0c0.6-0.2,1.2,0,1.5,0.4c0.3-0.3,0.6-0.6,0.9-0.9c-0.5-0.3-0.6-1-0.4-1.5
				s0.8-0.9,1.4-0.8C53,46.7,53,46.3,52.9,45.9z M50.6,47.6C50,48.9,48.4,49.6,47,49c-1.4-0.6-2.1-2.2-1.4-3.6
				c0.6-1.4,2.2-2.1,3.6-1.4C50.6,44.6,51.2,46.2,50.6,47.6z"/>
			<path class="st7" d="M49.1,44c-1.4-0.6-3,0.1-3.6,1.4c-0.6,1.4,0.1,3,1.4,3.6c1.4,0.6,3-0.1,3.6-1.4C51.2,46.2,50.6,44.6,49.1,44
				z M49.3,47c-0.3,0.7-1,1-1.7,0.7s-1-1-0.7-1.7c0.3-0.7,1-1,1.7-0.7C49.3,45.6,49.6,46.4,49.3,47z"/>
		</g>
		<polygon class="st8" points="43.2,29.6 43.2,31.2 41.9,33.4 39.4,33.4 39.4,36.5 37.3,38.6 35.2,36.5 35.2,33.4 32.9,33.4 
			31.5,31.2 31.5,29.6 		"/>
		<polygon class="st9" points="43.2,29.6 43.2,31.2 41.9,33.4 39.4,33.4 39.4,36.5 37.3,38.6 37.3,29.6 		"/>
		<path class="st10" d="M65.3,27.5l-0.1-0.1c-0.8-1.4-2.1-2.5-3.9-2.7c-0.2,0-0.3,0-0.6,0h-39c-0.2,0-0.3,0-0.6,0
			c-1.7,0.1-3,1.2-3.8,2.6l0,0l-0.3,0.6l1.6-4.4l2.8-6.1c0.6-1.4,2.1-2.5,3.7-2.5h32.1c1.7,0,3.1,1,3.7,2.4v0.1l2.8,6.1L65.3,27.5z"
			/>
	</g>
</g>
</svg>
