<?xml version="1.0" encoding="utf-8"?>
<!-- Generator: Adobe Illustrator 19.2.0, SVG Export Plug-In . SVG Version: 6.00 Build 0)  -->
<svg version="1.1" id="Icons" xmlns="http://www.w3.org/2000/svg" xmlns:xlink="http://www.w3.org/1999/xlink" x="0px" y="0px"
	 viewBox="0 0 336 336" style="enable-background:new 0 0 336 336;" xml:space="preserve">
<style type="text/css">
	.st0{fill-rule:evenodd;clip-rule:evenodd;fill:#FFFFFF;}
	.st1{fill:#FFFFFF;}
</style>
<g id="Reporting_Devices">
	<g id="End_Devices_1_">
		<path class="st0" d="M113.2,169.7c0-5.3-4.3-9.7-9.6-9.7H22.4c-5.3,0-9.7,4.3-9.7,9.7v132.3c0,5.3,4.3,9.7,9.7,9.7h81.2
			c5.3,0,9.6-4.3,9.6-9.7V169.7L113.2,169.7z M18.3,169.9h89.4V294H18.3V169.9L18.3,169.9z"/>
		<g>
			<path class="st1" d="M93.2,257V254v-62.8H82.4V254v3.1v21.6h10.8V257z M85.5,254v-59.7h4.7V254H85.5z"/>
			<path class="st1" d="M80.4,241.7v-50.5H69.6v50.5v3v33.9h10.8v-33.9V241.7z M72.6,241.7v-47.4h4.7v47.4H72.6z"/>
			<path class="st1" d="M67.6,229.7v-38.5H56.7v38.5v4.4v44.5h10.8v-44.5V229.7z M59.8,194.2h4.7v35.5h-4.7V194.2z"/>
			<path class="st1" d="M54.7,262.4v-71.2H43.9v71.2v3v13.1h10.8v-13.1V262.4z M47,262.4v-68.2h4.7v68.2H47z"/>
			<path class="st1" d="M41.9,267.4v-76.2H31.1v76.2v3v8.1h10.8v-8.1V267.4z M34.2,267.4v-73.1h4.7v73.1H34.2z"/>
		</g>
	</g>
</g>
<g>
	<path class="st0" d="M327.5,91.8c0-8.6-6.9-15.5-15.5-15.5H126.2c-8.6,0-14.9,6.9-14.9,15.5v183.5h205.5l0,0h10.5v-61.5
		c0-0.1,0-0.2,0-0.3C327.4,182.6,327.5,91.8,327.5,91.8z M179.5,262.8l4.4-12.2H253l5.9,12.2H179.5z M317.1,223.4l0-0.9l-0.2,0.8
		H117.4V85.9h203.4v123.8l0,0.1v13.6L317.1,223.4z"/>
	<path class="st0" d="M249.4,100.7H139.7v18.9h109.7h5.3h37.7v-18.9h-37.7H249.4z M249.4,114.2H145.1V106h104.3V114.2z"/>
	<path class="st0" d="M227.9,123.1h-88.1v18.9h88.1h5.3h59.2v-18.9h-59.2H227.9z M227.9,136.6h-82.8v-8.2h82.8V136.6z"/>
	<path class="st0" d="M207,145.5h-67.2v18.9H207h7.7h77.7v-18.9h-77.7H207z M207,159h-61.9v-8.2H207V159z"/>
	<path class="st0" d="M264.2,167.9H139.7v18.9h124.4h5.3h22.9v-18.9h-22.9H264.2z M264.2,181.4H145.1v-8.2h119.1V181.4z"/>
	<path class="st0" d="M272.8,190.3H139.7v18.9h133.1h5.3h14.2v-18.9h-14.2H272.8z M272.8,203.8H145.1v-8.2h127.8V203.8z"/>
</g>
<g>
	<path class="st1" d="M91.6,51.6c0,0,0.5-18.4-3-18.9c-9.3-1.3-46.1-1.8-52.4-1c-3.1,0.4-2.7,15.1-2.5,20.1c-1.6,0.5-2.7,2-2.7,3.7
		v68.1c0,1.7,1.1,3.2,2.6,3.7h-0.1c0,0,0.6,20,4.2,20.7c5.3,1.1,46.6-2,53.3-2.9c2.7-0.3,2.4-18,2.4-18h0c1.3-0.6,2.3-2,2.3-3.6
		V55.6C95.6,53.4,93.8,51.6,91.6,51.6z M90.1,61.6v56c0,1.8-1.5,3.3-3.3,3.3H40.1c-1.8,0-3.3-1.5-3.3-3.3v-56c0-1.8,1.5-3.3,3.3-3.3
		h46.7C88.6,58.3,90.1,59.8,90.1,61.6z"/>
</g>
<g>
	<g>
		<path class="st1" d="M72.5,85.5H40.7v-8.7h31.8V85.5z M42.5,83.4h28.2V79H42.5V83.4z"/>
	</g>
	<g>
		<path class="st1" d="M72.5,74.6H40.7v-8.7h31.8V74.6z M42.5,72.5h28.2v-4.5H42.5V72.5z"/>
	</g>
	<g>
		<path class="st1" d="M82.8,74.6h-8.1v-8.7h8.1V74.6z M76.5,72.5H81v-4.5h-4.5V72.5z"/>
	</g>
	<g>
		<path class="st1" d="M82.8,85.5h-8.1v-8.7h8.1V85.5z M76.5,83.4H81V79h-4.5V83.4z"/>
	</g>
	<g>
		<path class="st1" d="M72.5,96.4H40.7v-8.7h31.8V96.4z M42.5,94.3h28.2v-4.5H42.5V94.3z"/>
	</g>
	<g>
		<path class="st1" d="M82.8,96.4h-8.1v-8.7h8.1V96.4z M76.5,94.3H81v-4.5h-4.5V94.3z"/>
	</g>
	<g>
		<path class="st1" d="M72.5,107.3H40.7v-8.7h31.8V107.3z M42.5,105.2h28.2v-4.5H42.5V105.2z"/>
	</g>
	<g>
		<path class="st1" d="M82.8,107.3h-8.1v-8.7h8.1V107.3z M76.5,105.2H81v-4.5h-4.5V105.2z"/>
	</g>
	<g>
		<path class="st1" d="M72.5,118.3H40.7v-8.7h31.8V118.3z M42.5,116.1h28.2v-4.5H42.5V116.1z"/>
	</g>
	<g>
		<path class="st1" d="M82.8,118.3h-8.1v-8.7h8.1V118.3z M76.5,116.1H81v-4.5h-4.5V116.1z"/>
	</g>
</g>
</svg>
