<?xml version="1.0" encoding="utf-8"?>
<!-- Generator: Adobe Illustrator 19.2.0, SVG Export Plug-In . SVG Version: 6.00 Build 0)  -->
<svg version="1.1" id="圖層_1" xmlns="http://www.w3.org/2000/svg" xmlns:xlink="http://www.w3.org/1999/xlink" x="0px" y="0px"
	 viewBox="0 0 180 180" style="enable-background:new 0 0 180 180;" xml:space="preserve">
<style type="text/css">
	.st0{fill:#FFFFFF;}
</style>
<g>
	<path class="st0" d="M162.4,40.3H93.5V3.9h-7v36.3H17.6c-4.5,0-8.2,3.7-8.2,8.2v88.8c0,4.5,3.7,8.2,8.2,8.2h68.9v31.2h7v-31.2h68.9
		c4.5,0,8.2-3.7,8.2-8.2V48.5C170.6,43.9,166.9,40.3,162.4,40.3z M17.6,138.5c-0.6,0-1.2-0.5-1.2-1.2V48.5c0-0.6,0.5-1.2,1.2-1.2
		h68.9v5.8H23v79.2h63.5v6.2H17.6z M30,124.6l0.8,0.7H30V124.6z M86.5,125.2H34.2l17.2-20.6l9.1,9.3l17.8-23.7l8.2,9.9V125.2z
		 M93.5,60.1h57.6v65.1H93.5V60.1z M86.5,89.2L78.1,79l-18.3,24.3l-8.8-9l-21,25.1V60.1h56.5V89.2z M163.6,137.3
		c0,0.6-0.5,1.2-1.2,1.2H93.5v-6.2h64.6V53.1H93.5v-5.8h68.9c0.6,0,1.2,0.5,1.2,1.2V137.3z"/>
	<path class="st0" d="M120.2,70.2c-4.9,0-8.8,4-8.8,8.8c0,4.8,3.9,8.8,8.8,8.8c4.9,0,8.8-4,8.8-8.8C129,74.2,125,70.2,120.2,70.2z"
		/>
	<rect x="99.3" y="22.4" class="st0" width="14" height="7"/>
	<rect x="43.3" y="22.4" class="st0" width="14" height="7"/>
	<rect x="127.3" y="22.4" class="st0" width="10.9" height="7"/>
	<rect x="71.3" y="22.4" class="st0" width="14" height="7"/>
	<rect x="95.5" y="152.7" class="st0" width="14" height="7"/>
	<rect x="123.5" y="152.7" class="st0" width="14" height="7"/>
	<rect x="42.6" y="152.7" class="st0" width="10.9" height="7"/>
	<rect x="67.5" y="152.7" class="st0" width="14" height="7"/>
</g>
</svg>
