<?xml version="1.0" encoding="utf-8"?>
<!-- Generator: Adobe Illustrator 19.2.0, SVG Export Plug-In . SVG Version: 6.00 Build 0)  -->
<svg version="1.1" id="Icons" xmlns="http://www.w3.org/2000/svg" xmlns:xlink="http://www.w3.org/1999/xlink" x="0px" y="0px"
	 viewBox="0 0 336 336" style="enable-background:new 0 0 336 336;" xml:space="preserve">
<style type="text/css">
	.st0{fill-rule:evenodd;clip-rule:evenodd;fill:#FFFFFF;}
</style>
<g>
	<path class="st0" d="M229.6,13h2.2c1.7,21.8-6.5,38.1-16.7,49.8c-9.9,11.7-23.4,23-45.4,21.3c-1.5-21.5,6.9-36.5,16.9-48.3
		C196,24.9,213.1,15.2,229.6,13L229.6,13z M229.6,13"/>
	<path class="st0" d="M296,239.6v0.7c-6.2,18.7-15,34.7-25.7,49.5c-9.8,13.5-21.8,31.6-43.3,31.6c-18.5,0-30.8-11.9-49.8-12.3
		c-20.1-0.3-31.2,10-49.5,12.6h-6.3c-13.5-2-24.4-12.6-32.3-22.2C65.8,271,47.7,234.3,44.3,187.3v-13.8c1.5-33.6,17.7-61,39.5-74.3
		c11.5-7,27.2-13,44.8-10.4c7.5,1.2,15.2,3.8,22,6.3c6.4,2.5,14.4,6.8,21.9,6.6c5.2-0.1,10.3-2.8,15.4-4.7
		c15.1-5.5,29.9-11.7,49.5-8.8c23.5,3.6,40.2,14,50.4,30.1C268,131,252.3,150,255,182.5C257.3,212.1,274.6,229.4,296,239.6
		L296,239.6z M296,239.6"/>
</g>
</svg>
