<?xml version="1.0" encoding="utf-8"?>
<!-- Generator: Adobe Illustrator 19.2.0, SVG Export Plug-In . SVG Version: 6.00 Build 0)  -->
<svg version="1.1" id="Icons" xmlns="http://www.w3.org/2000/svg" xmlns:xlink="http://www.w3.org/1999/xlink" x="0px" y="0px"
	 viewBox="0 0 336 336" style="enable-background:new 0 0 336 336;" xml:space="preserve">
<style type="text/css">
	.st0{fill:#FFFFFF;}
</style>
<g>
	<path class="st0" d="M46.7,181.2v55.3h26v-55.3c0-3.6-2.9-6.5-6.5-6.5h-13C49.6,174.7,46.7,177.6,46.7,181.2z"/>
	<path class="st0" d="M59.7,86.7c-3.1,0-5.6,2.5-5.6,5.7v75.5h11.3V92.3C65.3,89.2,62.8,86.7,59.7,86.7z"/>
	<path class="st0" d="M298.8,243.9H38.1c-12.1,0-21.9,9.8-21.9,21.9v43.7c0,12.1,9.8,21.9,21.9,21.9h260.7
		c12.1,0,21.9-9.8,21.9-21.9v-43.7C320.6,253.7,310.8,243.9,298.8,243.9z M58.8,299.8c-6.7,0-12.1-5.4-12.1-12.1
		c0-6.7,5.4-12.2,12.1-12.2c6.7,0,12.1,5.4,12.1,12.2C71,294.3,65.5,299.8,58.8,299.8z M102.7,299.8c-6.7,0-12.1-5.4-12.1-12.1
		c0-6.7,5.4-12.2,12.1-12.2c6.7,0,12.1,5.4,12.1,12.2C114.8,294.3,109.4,299.8,102.7,299.8z M146.5,299.8c-6.7,0-12.1-5.4-12.1-12.1
		c0-6.7,5.4-12.2,12.1-12.2c6.7,0,12.2,5.4,12.2,12.2C158.7,294.3,153.2,299.8,146.5,299.8z M190.3,299.8c-6.7,0-12.1-5.4-12.1-12.1
		c0-6.7,5.4-12.2,12.1-12.2c6.7,0,12.2,5.4,12.2,12.2C202.5,294.3,197.1,299.8,190.3,299.8z M234.2,299.8c-6.7,0-12.1-5.4-12.1-12.1
		c0-6.7,5.4-12.2,12.1-12.2c6.7,0,12.2,5.4,12.2,12.2C246.3,294.3,240.9,299.8,234.2,299.8z M278,299.8c-6.7,0-12.2-5.4-12.2-12.1
		c0-6.7,5.4-12.2,12.2-12.2c6.7,0,12.2,5.4,12.2,12.2C290.2,294.3,284.7,299.8,278,299.8z"/>
	<path class="st0" d="M44,15.1c23.3-1.4,46.2,7.2,62.4,23.1l11.5,14c0.7,1,1.3,2,1.9,3.1c10.5,17.6,14,38.3,10,58.4
		c-0.5,2.5,1.1,5,3.6,5.5c0.3,0.1,0.6,0.1,0.9,0.1c2.2,0,4.1-1.5,4.5-3.7c4.5-22.3,0.6-45.4-11.1-64.9c-0.7-1.2-1.4-2.3-2.5-3.9
		L113.3,32C94.8,13.8,69.3,4.3,43.5,5.9C40.9,6,39,8.2,39.1,10.8C39.3,13.3,41.7,15.3,44,15.1z"/>
	<path class="st0" d="M90.1,111.4c0.3,0.1,0.6,0.1,0.9,0.1c2.2,0,4.1-1.5,4.5-3.7c2.4-11.9,0.3-24.2-5.9-34.6
		c-9.4-15.8-26.6-24.9-45-23.8c-2.5,0.2-4.5,2.3-4.3,4.9c0.2,2.6,2.4,4.5,4.9,4.4c15-0.9,28.8,6.5,36.4,19.3c5,8.5,6.7,18.4,4.8,28
		C85.9,108.4,87.5,110.9,90.1,111.4z"/>
	<path class="st0" d="M43.8,35.2c23.7-1.4,45.9,10.4,58,30.7c8,13.5,10.7,29.3,7.6,44.6c-0.5,2.5,1.1,5,3.6,5.5
		c0.3,0.1,0.6,0.1,0.9,0.1c2.2,0,4.1-1.5,4.5-3.7c3.6-17.6,0.5-35.8-8.7-51.2C95.9,37.8,70.5,24.3,43.2,25.9
		c-2.6,0.2-4.5,2.3-4.4,4.9C39,33.4,41.4,35.4,43.8,35.2z"/>
</g>
</svg>
