<?xml version="1.0" encoding="utf-8"?>
<!-- Generator: Adobe Illustrator 19.2.0, SVG Export Plug-In . SVG Version: 6.00 Build 0)  -->
<svg version="1.1" id="Icons" xmlns="http://www.w3.org/2000/svg" xmlns:xlink="http://www.w3.org/1999/xlink" x="0px" y="0px"
	 viewBox="0 0 336 336" style="enable-background:new 0 0 336 336;" xml:space="preserve">
<style type="text/css">
	.st0{fill:#FFFFFF;}
</style>
<g id="Layers">
	<g id="Layers_1_">
		<g>
			<polygon class="st0" points="268.6,216.4 298.5,234.5 170.3,321.9 42.2,234.5 72.1,216.4 65.1,211.6 28,234.1 170.3,331.2 
				312.7,234.1 275.5,211.6 			"/>
		</g>
		<g>
			<polygon class="st0" points="268.5,168.6 298.5,186.7 170.3,274.1 42.2,186.7 72.1,168.6 65.1,163.8 28,186.3 170.3,283.4 
				312.7,186.3 275.5,163.8 			"/>
		</g>
		<g>
			<path class="st0" d="M154.5,78c-4.3,4.6-3.7,12.1,1.2,16.7c5,4.6,12.5,4.5,16.7-0.1c4.3-4.6,3.7-12.1-1.2-16.7
				C166.3,73.3,158.8,73.4,154.5,78z"/>
			<path class="st0" d="M132.9,123.6c-3.3,3.6-2.9,9.4,0.9,12.9c3.8,3.6,9.7,3.5,13-0.1c3.3-3.6,2.9-9.4-1-12.9
				C142,120,136.2,120.1,132.9,123.6z"/>
			<path class="st0" d="M170.3,4.5L28,90.7l142.3,97.1l142.3-97.1L170.3,4.5z M148.4,25.2c2.8-3,7.6-3,10.8-0.1
				c3.2,3,3.6,7.8,0.8,10.8c-2.8,3-7.6,3-10.8,0.1C146,33.1,145.7,28.2,148.4,25.2z M162.4,60c0.2,1.5-0.8,2.8-2.3,2.9
				c-0.8,0.1-1.6-0.2-2.2-0.8c-0.5-0.4-0.8-1-0.9-1.7l-2.1-15c-0.2-1.5,0.8-2.8,2.3-2.9c1.5-0.1,2.9,1,3.1,2.5L162.4,60z
				 M129.1,81.9l10.2,0.7c1.5,0.1,2.7,1.4,2.7,2.9c0,1.5-1.2,2.6-2.7,2.5l-10.2-0.7c-0.7,0-1.3-0.3-1.8-0.8
				c-0.6-0.5-0.9-1.3-0.9-2.1C126.4,82.9,127.6,81.8,129.1,81.9z M121.3,89.5c-2.8,3-7.6,3-10.8,0.1c-3.2-3-3.6-7.8-0.8-10.8
				c2.8-3,7.6-3,10.8-0.1C123.8,81.7,124.1,86.5,121.3,89.5z M218.6,98.2c-2.2-2-3.6-4.4-4.4-7l-33.9,0.2c-0.6,2.6-1.8,5-3.7,7.1
				c-1.4,1.6-3.1,2.7-5,3.6l12.1,38.4c1.6,0.2,3.3,0.9,4.6,2.1c3.2,3,3.6,7.8,0.8,10.8c-2.8,3-7.6,3-10.8,0c-3.2-3-3.6-7.8-0.8-10.8
				c0.3-0.3,0.7-0.6,1-0.9l-12.1-38.3c-3.2,0.3-6.4-0.2-9.4-1.6l-8.4,17.3c0.3,0.2,0.6,0.4,0.8,0.6c6.1,5.7,6.8,14.9,1.5,20.7
				c-5.3,5.7-14.6,5.8-20.7,0.1c-6.1-5.7-6.8-14.9-1.5-20.7c3.8-4.1,9.7-5.3,15-3.5l8.6-17.7c0,0-0.1-0.1-0.1-0.1
				c-7.2-6.7-8-17.6-1.8-24.4c6.3-6.8,17.2-6.8,24.5-0.1c3.5,3.3,5.5,7.6,5.9,11.9l32.8-0.2c0.2-3,1.3-5.9,3.5-8.2
				c5.3-5.7,14.6-5.8,20.7-0.1c6.1,5.7,6.8,14.9,1.5,20.7C234,103.8,224.7,103.9,218.6,98.2z"/>
			<path class="st0" d="M221.2,81.4c-3.3,3.6-2.9,9.4,1,12.9c3.8,3.5,9.7,3.5,13-0.1c3.3-3.6,2.9-9.4-0.9-13
				C230.3,77.8,224.5,77.8,221.2,81.4z"/>
		</g>
		<polygon class="st0" points="268.6,120.8 298.5,138.9 170.3,226.3 42.2,138.9 72.1,120.8 65.1,116 28,138.5 170.3,235.6 
			312.7,138.5 275.5,116 		"/>
	</g>
</g>
</svg>
