<?xml version="1.0" encoding="utf-8"?>
<!-- Generator: Adobe Illustrator 19.2.0, SVG Export Plug-In . SVG Version: 6.00 Build 0)  -->
<svg version="1.1" id="Icons" xmlns="http://www.w3.org/2000/svg" xmlns:xlink="http://www.w3.org/1999/xlink" x="0px" y="0px"
	 viewBox="0 0 336 336" style="enable-background:new 0 0 336 336;" xml:space="preserve">
<style type="text/css">
	.st0{fill:#FFFFFF;}
</style>
<g>
	<polygon class="st0" points="307.8,308 287.9,308 287.9,327.8 327.6,327.8 327.6,288.1 307.8,288.1 	"/>
	<rect x="307.8" y="228.6" class="st0" width="19.9" height="39.7"/>
	<rect x="307.8" y="169" class="st0" width="19.9" height="39.7"/>
	<rect x="307.8" y="109.5" class="st0" width="19.9" height="39.7"/>
	<polygon class="st0" points="248.2,10.2 248.2,30.1 307.8,30.1 307.8,89.6 327.6,89.6 327.6,10.2 	"/>
	<rect x="69.6" y="10.2" class="st0" width="39.7" height="19.9"/>
	<rect x="129.1" y="10.2" class="st0" width="39.7" height="19.9"/>
	<rect x="188.6" y="10.2" class="st0" width="39.7" height="19.9"/>
	<polygon class="st0" points="29.9,30.1 49.7,30.1 49.7,10.2 10,10.2 10,49.9 29.9,49.9 	"/>
	<rect x="10" y="69.8" class="st0" width="19.9" height="39.7"/>
	<rect x="228.4" y="308" class="st0" width="39.7" height="19.9"/>
	<path class="st0" d="M285,52.8c-3.9-3.9-10.2-3.9-14,0l-62.5,62.5V80.4c0-5.5-4.8-9.9-10.3-9.9c-5.5,0-9.7,4.4-9.7,9.9h0.2v55.9
		c-1.4,3.6-0.7,7.8,2.2,10.6c2.9,2.9,7.1,3.6,10.6,2.2h55.9c5.5,0,9.9-4.4,9.9-9.9c0-5.5-4.4-9.9-9.9-9.9h-34.9L285,66.8
		C288.9,63,288.9,56.7,285,52.8z"/>
	<path class="st0" d="M168.8,178.9c0-2.6-1.1-5.2-2.9-7c-1.8-1.8-4.4-2.9-7-2.9h-129v-39.7H10v59.5v39.7v19.8v69.5v9.9h9.9h69.5
		h19.9h39.7h59.6V308h-39.7V178.9z M148.9,308h-39.7H89.4H29.9v-59.6v-19.8v-39.7h119.1V308z"/>
</g>
</svg>
