<?xml version="1.0" encoding="utf-8"?>
<!-- Generator: Adobe Illustrator 19.2.0, SVG Export Plug-In . SVG Version: 6.00 Build 0)  -->
<svg version="1.1" id="圖層_1" xmlns="http://www.w3.org/2000/svg" xmlns:xlink="http://www.w3.org/1999/xlink" x="0px" y="0px"
	 viewBox="0 0 82 82" style="enable-background:new 0 0 82 82;" xml:space="preserve">
<style type="text/css">
	.st0{fill:#E48D72;}
	.st1{display:none;}
	.st2{fill:#FFFFFF;}
	.st3{fill:#BFBFBF;}
	.st4{fill:#F37B56;}
	.st5{fill:#6EC49E;}
	.st6{fill:#3C4352;}
</style>
<rect x="-1.8" y="-2.5" class="st0" width="85.5" height="87.3"/>
<g id="bg" class="st1">
</g>
<g id="export" class="st1">
</g>
<g id="icons">
	<g>
		<g>
			<rect x="20.4" y="13" class="st2" width="46.1" height="55.4"/>
			<rect x="23.1" y="15.4" class="st3" width="20.8" height="2.9"/>
			<rect x="23.1" y="20.8" class="st3" width="20.2" height="0.8"/>
			<rect x="23.1" y="22.2" class="st3" width="20.2" height="0.8"/>
			<rect x="23.1" y="23.6" class="st3" width="20.2" height="0.8"/>
			<rect x="23.1" y="24.9" class="st3" width="20.2" height="0.8"/>
			<rect x="23.1" y="26.3" class="st3" width="20.2" height="0.8"/>
			<rect x="23.1" y="27.6" class="st3" width="20.2" height="0.8"/>
			<rect x="23.1" y="29" class="st3" width="20.2" height="0.8"/>
			<rect x="23.1" y="30.4" class="st3" width="20.2" height="0.8"/>
			<rect x="23.1" y="31.7" class="st3" width="20.2" height="0.8"/>
			<rect x="23.1" y="33.1" class="st3" width="20.2" height="0.8"/>
			<rect x="23.1" y="34.5" class="st3" width="20.2" height="0.8"/>
			<rect x="23.1" y="35.8" class="st3" width="20.2" height="0.8"/>
			<rect x="23.1" y="37.2" class="st3" width="20.2" height="0.8"/>
			<rect x="23.1" y="38.6" class="st3" width="20.2" height="0.8"/>
			<rect x="23.1" y="39.9" class="st3" width="20.2" height="0.8"/>
			<rect x="23.1" y="41.3" class="st3" width="20.2" height="0.8"/>
			<rect x="23.1" y="42.7" class="st3" width="20.2" height="0.8"/>
			<rect x="23.1" y="44.1" class="st3" width="20.2" height="0.8"/>
			<rect x="23.1" y="45.5" class="st3" width="20.2" height="0.8"/>
			<rect x="23.1" y="46.8" class="st3" width="20.2" height="0.8"/>
			<rect x="23.1" y="48.2" class="st3" width="20.2" height="0.8"/>
			<rect x="23.1" y="49.5" class="st3" width="20.2" height="0.8"/>
			<rect x="23.1" y="50.9" class="st3" width="20.2" height="0.8"/>
			<rect x="23.1" y="52.3" class="st3" width="20.2" height="0.8"/>
			<rect x="23.1" y="53.6" class="st3" width="20.2" height="0.8"/>
			<rect x="23.1" y="55" class="st3" width="20.2" height="0.8"/>
			<rect x="23.1" y="56.3" class="st3" width="20.2" height="0.8"/>
			<rect x="23.1" y="57.7" class="st3" width="20.2" height="0.8"/>
			<rect x="23.1" y="59.1" class="st3" width="20.2" height="0.8"/>
			<rect x="23.1" y="60.4" class="st3" width="20.2" height="0.8"/>
			<rect x="23.1" y="61.8" class="st3" width="20.2" height="0.8"/>
			<rect x="23.1" y="63.2" class="st3" width="20.2" height="0.8"/>
			<rect x="23.1" y="64.5" class="st3" width="20.2" height="0.8"/>
			<rect x="23.1" y="65.9" class="st3" width="20.2" height="0.8"/>
			<rect x="43.9" y="20.8" class="st3" width="20.2" height="0.8"/>
			<rect x="43.9" y="22.2" class="st3" width="20.2" height="0.8"/>
			<rect x="43.9" y="23.6" class="st3" width="20.2" height="0.8"/>
			<rect x="43.9" y="24.9" class="st3" width="20.2" height="0.8"/>
			<rect x="43.9" y="26.3" class="st3" width="20.2" height="0.8"/>
			<rect x="43.9" y="27.6" class="st3" width="20.2" height="0.8"/>
			<rect x="43.9" y="29" class="st3" width="20.2" height="0.8"/>
			<rect x="43.9" y="30.4" class="st3" width="20.2" height="0.8"/>
			<rect x="43.9" y="31.7" class="st3" width="20.2" height="0.8"/>
			<rect x="43.9" y="33.1" class="st3" width="20.2" height="0.8"/>
			<rect x="43.9" y="34.5" class="st3" width="20.2" height="0.8"/>
			<rect x="43.9" y="35.8" class="st3" width="20.2" height="0.8"/>
			<rect x="43.9" y="37.2" class="st3" width="20.2" height="0.8"/>
			<rect x="43.9" y="38.6" class="st3" width="20.2" height="0.8"/>
			<rect x="43.9" y="39.9" class="st3" width="20.2" height="0.8"/>
			<rect x="43.9" y="41.3" class="st3" width="20.2" height="0.8"/>
			<rect x="43.9" y="42.7" class="st3" width="20.2" height="0.8"/>
			<rect x="43.9" y="44.1" class="st3" width="20.2" height="0.8"/>
			<rect x="43.9" y="45.5" class="st3" width="20.2" height="0.8"/>
			<rect x="43.9" y="46.8" class="st3" width="20.2" height="0.8"/>
			<rect x="43.9" y="48.2" class="st3" width="20.2" height="0.8"/>
			<rect x="43.9" y="49.5" class="st3" width="20.2" height="0.8"/>
			<rect x="43.9" y="50.9" class="st3" width="20.2" height="0.8"/>
			<rect x="43.9" y="52.3" class="st3" width="20.2" height="0.8"/>
			<rect x="43.9" y="53.6" class="st3" width="20.2" height="0.8"/>
			<rect x="43.9" y="55" class="st3" width="20.2" height="0.8"/>
			<rect x="43.9" y="56.3" class="st3" width="20.2" height="0.8"/>
			<rect x="43.9" y="57.7" class="st3" width="20.2" height="0.8"/>
			<rect x="43.9" y="59.1" class="st3" width="20.2" height="0.8"/>
			<rect x="43.9" y="60.4" class="st3" width="20.2" height="0.8"/>
			<rect x="43.9" y="61.8" class="st3" width="20.2" height="0.8"/>
			<rect x="43.9" y="63.2" class="st3" width="20.2" height="0.8"/>
			<rect x="43.9" y="64.5" class="st3" width="20.2" height="0.8"/>
			<rect x="43.9" y="65.9" class="st3" width="20.2" height="0.8"/>
			<rect x="62.9" y="14.2" class="st3" width="0.6" height="1"/>
		</g>
		<g>
			
				<rect x="17" y="13.1" transform="matrix(0.998 -6.283662e-002 6.283662e-002 0.998 -2.5083 2.547)" class="st2" width="44.4" height="56.1"/>
			
				<rect x="18.5" y="18.2" transform="matrix(0.998 -6.283836e-002 6.283836e-002 0.998 -1.2235 2.0604)" class="st4" width="27.3" height="4.7"/>
			
				<rect x="47.5" y="15.4" transform="matrix(0.998 -6.282644e-002 6.282644e-002 0.998 -1.2703 3.3565)" class="st5" width="10.5" height="12.9"/>
			
				<rect x="19.7" y="27" transform="matrix(0.998 -6.284124e-002 6.284124e-002 0.998 -1.6636 1.7109)" class="st6" width="13.3" height="0.6"/>
			
				<rect x="20.4" y="37.9" transform="matrix(0.998 -6.282829e-002 6.282829e-002 0.998 -2.3494 1.771)" class="st6" width="13.3" height="0.6"/>
			
				<rect x="23" y="27.7" transform="matrix(0.998 -6.283687e-002 6.283687e-002 0.998 -1.6913 2.2312)" class="st3" width="23.3" height="0.6"/>
			
				<rect x="23.7" y="38.3" transform="matrix(0.998 -6.283656e-002 6.283656e-002 0.998 -2.3457 2.6738)" class="st3" width="35.3" height="0.6"/>
			
				<rect x="20.5" y="39.6" transform="matrix(0.998 -6.282995e-002 6.282995e-002 0.998 -2.4265 2.5785)" class="st3" width="38.5" height="0.6"/>
			
				<rect x="20.6" y="40.6" transform="matrix(0.998 -6.283945e-002 6.283945e-002 0.998 -2.4949 2.5857)" class="st3" width="38.5" height="0.6"/>
			
				<rect x="20.7" y="41.8" transform="matrix(0.998 -6.283455e-002 6.283455e-002 0.998 -2.5677 2.5927)" class="st3" width="38.5" height="0.6"/>
			
				<rect x="20.7" y="43" transform="matrix(0.998 -6.283960e-002 6.283960e-002 0.998 -2.6408 2.6002)" class="st3" width="38.5" height="0.6"/>
			
				<rect x="20.8" y="44.1" transform="matrix(0.998 -6.283455e-002 6.283455e-002 0.998 -2.7135 2.6072)" class="st3" width="38.5" height="0.6"/>
			
				<rect x="21.1" y="48.6" transform="matrix(0.998 -6.284037e-002 6.284037e-002 0.998 -3.0161 1.8362)" class="st6" width="13.3" height="0.6"/>
			
				<rect x="24.4" y="48.9" transform="matrix(0.998 -6.283671e-002 6.283671e-002 0.998 -3.0119 2.7387)" class="st3" width="35.3" height="0.6"/>
			
				<rect x="21.2" y="50.2" transform="matrix(0.998 -6.283469e-002 6.283469e-002 0.998 -3.0928 2.6435)" class="st3" width="38.5" height="0.6"/>
			
				<rect x="21.3" y="51.3" transform="matrix(0.998 -6.283974e-002 6.283974e-002 0.998 -3.1611 2.6505)" class="st3" width="38.5" height="0.6"/>
			
				<rect x="21.4" y="52.4" transform="matrix(0.998 -6.283945e-002 6.283945e-002 0.998 -3.2341 2.6578)" class="st3" width="38.5" height="0.6"/>
			
				<rect x="21.4" y="53.6" transform="matrix(0.998 -6.283455e-002 6.283455e-002 0.998 -3.3072 2.66)" class="st3" width="38.5" height="0.6"/>
			
				<rect x="21.4" y="54.8" transform="matrix(0.998 -6.283455e-002 6.283455e-002 0.998 -3.3801 2.6672)" class="st3" width="38.5" height="0.6"/>
			
				<rect x="19.8" y="29" transform="matrix(0.998 -6.283735e-002 6.283735e-002 0.998 -1.7772 2.1363)" class="st3" width="26.5" height="0.6"/>
			
				<rect x="19.9" y="30.3" transform="matrix(0.998 -6.283779e-002 6.283779e-002 0.998 -1.8551 2.1438)" class="st3" width="26.5" height="0.6"/>
			
				<rect x="20" y="31.1" transform="matrix(0.998 -6.283484e-002 6.283484e-002 0.998 -1.8966 2.5279)" class="st3" width="38.5" height="0.6"/>
			
				<rect x="20" y="32.3" transform="matrix(0.998 -6.283945e-002 6.283945e-002 0.998 -1.9697 2.5351)" class="st3" width="38.5" height="0.6"/>
			
				<rect x="20.1" y="33.5" transform="matrix(0.998 -6.283974e-002 6.283974e-002 0.998 -2.0475 2.5425)" class="st3" width="38.5" height="0.6"/>
			<g>
				<path class="st4" d="M28.5,68.4c-3,0.2-5.7-2.1-5.8-5.2c-0.2-3,2.1-5.7,5.2-5.8c3-0.2,5.7,2.1,5.8,5.2
					C33.9,65.6,31.5,68.3,28.5,68.4z M27.9,57.6c-2.9,0.2-5.1,2.7-5,5.7s2.7,5.1,5.7,5s5.1-2.7,5-5.7C33.3,59.6,30.7,57.5,27.9,57.6
					z M28.4,67.4c-2.5,0.2-4.6-1.7-4.7-4.2c-0.2-2.5,1.7-4.6,4.2-4.7c2.5-0.2,4.6,1.7,4.7,4.2C32.8,65.1,30.9,67.2,28.4,67.4z
					 M27.9,58.7c-2.3,0.2-4.1,2.2-4,4.5c0.2,2.3,2.2,4.1,4.5,4s4.1-2.2,4-4.5C32.2,60.3,30.2,58.6,27.9,58.7z"/>
				
					<ellipse transform="matrix(0.998 -6.285648e-002 6.285648e-002 0.998 -3.8982 1.8962)" class="st4" cx="28.2" cy="62.9" rx="2.9" ry="2.9"/>
			</g>
			
				<rect x="40.1" y="63.1" transform="matrix(0.998 -6.282776e-002 6.282776e-002 0.998 -3.8945 3.122)" class="st6" width="15.3" height="0.7"/>
			
				<rect x="40.6" y="60.4" transform="matrix(0.998 -6.284224e-002 6.284224e-002 0.998 -3.7575 3.0917)" class="st3" width="13.3" height="1.7"/>
		</g>
	</g>
</g>
</svg>
