<?xml version="1.0" encoding="utf-8"?>
<!-- Generator: Adobe Illustrator 19.2.0, SVG Export Plug-In . SVG Version: 6.00 Build 0)  -->
<svg version="1.1" id="圖層_1" xmlns="http://www.w3.org/2000/svg" xmlns:xlink="http://www.w3.org/1999/xlink" x="0px" y="0px"
	 viewBox="0 0 82 82" style="enable-background:new 0 0 82 82;" xml:space="preserve">
<style type="text/css">
	.st0{fill:#8C97CB;}
	.st1{display:none;}
	.st2{fill:#343643;}
	.st3{fill:#F5EAD4;}
	.st4{fill:#BF2430;}
</style>
<rect x="-2.3" y="-2.3" class="st0" width="86" height="86.5"/>
<g id="bg" class="st1">
</g>
<g id="export" class="st1">
</g>
<g id="icons">
	<g>
		<path class="st2" d="M41.5,8.9c0,0-16.2,13.4-29.5,15.6c0,0-5.7,48.5,29.5,48.5C76.6,73,71,24.5,71,24.5
			C57.7,22.3,41.5,8.9,41.5,8.9z"/>
		<g>
			<path class="st3" d="M41.5,17.2v25.6h21.4c1.1-7.5,0.4-14.1,0.4-14.1C53.5,27.2,41.5,17.2,41.5,17.2z"/>
			<path class="st4" d="M20.2,42.9h21.3V17.2c0,0-12,10-21.7,11.5C19.8,28.8,19,35.4,20.2,42.9z"/>
			<path class="st4" d="M41.5,64.7c14.8,0,19.8-11.7,21.3-21.7H41.5V64.7z"/>
			<path class="st3" d="M41.5,64.7V42.9H20.2C21.8,53,26.7,64.7,41.5,64.7z"/>
		</g>
	</g>
</g>
</svg>
