<?xml version="1.0" encoding="utf-8"?>
<!-- Generator: Adobe Illustrator 19.2.0, SVG Export Plug-In . SVG Version: 6.00 Build 0)  -->
<svg version="1.1" id="Icons" xmlns="http://www.w3.org/2000/svg" xmlns:xlink="http://www.w3.org/1999/xlink" x="0px" y="0px"
	 viewBox="0 0 336 336" style="enable-background:new 0 0 336 336;" xml:space="preserve">
<style type="text/css">
	.st0{fill-rule:evenodd;clip-rule:evenodd;fill:#FFFFFF;}
</style>
<path class="st0" d="M65.5,94.5l33.7,4.2l-18.9,14.7L65.5,94.5L65.5,94.5z M46.3,138.6l4.3-34l14.9,19.1L46.3,138.6L46.3,138.6z
	 M93.3,159.3l-16.3-21l-21,16.3L93.3,159.3L93.3,159.3z M111.9,112.5l-20.8,16.2l16.2,20.8L111.9,112.5L111.9,112.5z M282.1,108
	c6.7-1.5,13.3,2.8,14.8,9.5c1.5,6.7-2.8,13.4-9.5,14.8c-6.7,1.5-13.4-2.8-14.8-9.5C271.1,116.1,275.4,109.5,282.1,108L282.1,108z
	 M252.9,91.1c6.7-1.5,13.4,2.8,14.8,9.5c1.5,6.7-2.8,13.4-9.5,14.8c-6.7,1.5-13.3-2.8-14.8-9.5C241.9,99.2,246.2,92.6,252.9,91.1
	L252.9,91.1z M235.2,119.4c6.7-1.5,13.3,2.8,14.8,9.5c1.5,6.7-2.8,13.3-9.5,14.8c-6.7,1.5-13.4-2.8-14.8-9.5
	C224.2,127.5,228.4,120.9,235.2,119.4L235.2,119.4z M264.3,139.2c6.7-1.5,13.4,2.8,14.8,9.5c1.5,6.7-2.8,13.4-9.5,14.8
	c-6.7,1.5-13.4-2.8-14.8-9.5C253.4,147.3,257.6,140.7,264.3,139.2L264.3,139.2z M142.7,127.8h22.9V142h-22.9V127.8L142.7,127.8z
	 M173.2,127.8h22.9V142h-22.9V127.8L173.2,127.8z M82.2,70.7c-34.3,0-62,27.8-62,62c0,7,1.2,13.8,3.3,20.1
	C14.2,185.9,10.3,222,11.9,261c15.8,16.4,31.6,17.6,47.4,18.8c22-26.7,37.9-55.2,53.7-90.3c5.8-2.2,10.6-5.8,15.2-13h84.6
	c2.7,4.4,8.2,10.8,14.7,13.4c15.7,34.3,32,63.8,53.6,89.9c15.8-1.2,31.6-2.4,47.4-18.8c1.6-38.7-2.2-74.5-11.4-107.4
	c2-6.1,3.1-12.6,3.1-19.4c0-34.3-27.8-62-62-62c-19.9,0-37.6,9.4-48.9,23.9h-77C121,80.6,102.8,70.7,82.2,70.7z"/>
<path class="st0" d="M35.7,44.2c21.9-10.8,43.9-9.3,65.8,0v18.2c-7.2-3-15.1-4.6-23.4-4.6c-16.4,0-31.3,6.4-42.4,16.8V44.2
	L35.7,44.2z M301.1,44.2c-21.9-10.8-43.9-9.3-65.8,0v18.2c7.2-3,15.1-4.6,23.4-4.6c16.4,0,31.3,6.4,42.4,16.8V44.2z"/>
</svg>
