<?xml version="1.0" encoding="utf-8"?>
<!-- Generator: Adobe Illustrator 19.2.0, SVG Export Plug-In . SVG Version: 6.00 Build 0)  -->
<svg version="1.1" id="圖層_1" xmlns="http://www.w3.org/2000/svg" xmlns:xlink="http://www.w3.org/1999/xlink" x="0px" y="0px"
	 viewBox="0 0 82 82" style="enable-background:new 0 0 82 82;" xml:space="preserve">
<style type="text/css">
	.st0{fill:#79B3C5;}
	.st1{display:none;}
	.st2{fill:#EDEDED;}
	.st3{fill:#585964;}
	.st4{fill:#F5EAD4;}
	.st5{fill:#BF2430;}
	.st6{fill:#E5E4E5;}
	.st7{fill:#343643;}
</style>
<rect x="-1.3" y="-0.9" class="st0" width="85.3" height="84"/>
<g id="bg" class="st1">
</g>
<g id="export" class="st1">
</g>
<g id="icons">
	<g>
		<g>
			<rect x="51.2" y="22.8" class="st2" width="23.7" height="33.3"/>
			<path class="st3" d="M74.5,25.5H51.6c-1.3,0-2.3,0.8-2.3,1.9v4.3c0,1,1,1.9,2.3,1.9h23c1.3,0,2.3-0.8,2.3-1.9v-4.3
				C76.8,26.3,75.8,25.5,74.5,25.5z"/>
			<path class="st3" d="M74.5,35.5H51.6c-1.3,0-2.3,0.8-2.3,1.9v4.3c0,1,1,1.9,2.3,1.9h23c1.3,0,2.3-0.8,2.3-1.9v-4.3
				C76.8,36.3,75.8,35.5,74.5,35.5z"/>
			<path class="st3" d="M74.5,45.5H51.6c-1.3,0-2.3,0.8-2.3,1.9v4.3c0,1,1,1.9,2.3,1.9h23c1.3,0,2.3-0.8,2.3-1.9v-4.3
				C76.8,46.3,75.8,45.5,74.5,45.5z"/>
			<circle class="st4" cx="69.3" cy="28.7" r="1"/>
			<circle class="st5" cx="72.3" cy="28.7" r="1"/>
			<circle class="st4" cx="69.3" cy="38.1" r="1"/>
			<circle class="st5" cx="72.3" cy="38.1" r="1"/>
			<circle class="st4" cx="69.3" cy="47.3" r="1"/>
			<circle class="st5" cx="72.3" cy="47.3" r="1"/>
		</g>
		<g>
			<rect x="7.7" y="22.8" class="st2" width="23.7" height="33.3"/>
			<path class="st3" d="M31.1,25.5h-23c-1.3,0-2.3,0.8-2.3,1.9v4.3c0,1,1,1.9,2.3,1.9h23c1.3,0,2.3-0.8,2.3-1.9v-4.3
				C33.3,26.3,32.3,25.5,31.1,25.5z"/>
			<path class="st3" d="M31.1,35.5h-23c-1.3,0-2.3,0.8-2.3,1.9v4.3c0,1,1,1.9,2.3,1.9h23c1.3,0,2.3-0.8,2.3-1.9v-4.3
				C33.3,36.3,32.3,35.5,31.1,35.5z"/>
			<path class="st3" d="M31.1,45.5h-23c-1.3,0-2.3,0.8-2.3,1.9v4.3c0,1,1,1.9,2.3,1.9h23c1.3,0,2.3-0.8,2.3-1.9v-4.3
				C33.3,46.3,32.3,45.5,31.1,45.5z"/>
			<circle class="st4" cx="25.9" cy="28.7" r="1"/>
			<circle class="st5" cx="28.8" cy="28.7" r="1"/>
			<circle class="st4" cx="25.9" cy="38.1" r="1"/>
			<circle class="st5" cx="28.8" cy="38.1" r="1"/>
			<circle class="st4" cx="25.9" cy="47.3" r="1"/>
			<circle class="st5" cx="28.8" cy="47.3" r="1"/>
		</g>
		<g>
			<rect x="22.6" y="16.4" class="st6" width="37.4" height="52.6"/>
			<path class="st7" d="M59.4,20.6H23.2c-1.9,0-3.6,1.3-3.6,3v6.8c0,1.7,1.6,3,3.6,3h36.3c1.9,0,3.6-1.3,3.6-3v-6.8
				C63,22,61.5,20.6,59.4,20.6z"/>
			<path class="st7" d="M59.4,36.4H23.2c-1.9,0-3.6,1.3-3.6,3v6.8c0,1.7,1.6,3,3.6,3h36.3c1.9,0,3.6-1.3,3.6-3v-6.8
				C63,37.7,61.5,36.4,59.4,36.4z"/>
			<path class="st7" d="M59.4,52.1H23.2c-1.9,0-3.6,1.3-3.6,3v6.8c0,1.7,1.6,3,3.6,3h36.3c1.9,0,3.6-1.3,3.6-3v-6.8
				C63,53.5,61.5,52.1,59.4,52.1z"/>
			<circle class="st4" cx="51.2" cy="25.8" r="1.6"/>
			<circle class="st5" cx="55.9" cy="25.8" r="1.6"/>
			<circle class="st4" cx="51.2" cy="40.5" r="1.6"/>
			<circle class="st5" cx="55.9" cy="40.5" r="1.6"/>
			<circle class="st4" cx="51.2" cy="55.1" r="1.6"/>
			<circle class="st5" cx="55.9" cy="55.1" r="1.6"/>
		</g>
	</g>
</g>
</svg>
