<?xml version="1.0" encoding="utf-8"?>
<!-- Generator: Adobe Illustrator 19.2.0, SVG Export Plug-In . SVG Version: 6.00 Build 0)  -->
<svg version="1.1" id="Icons" xmlns="http://www.w3.org/2000/svg" xmlns:xlink="http://www.w3.org/1999/xlink" x="0px" y="0px"
	 viewBox="0 0 336 336" style="enable-background:new 0 0 336 336;" xml:space="preserve">
<style type="text/css">
	.st0{fill:#FFFFFF;}
</style>
<g id="Camera_2_">
	<path class="st0" d="M112.8,180.4c0-41.2,33.4-74.7,74.7-74.7c41.3,0,74.7,33.4,74.7,74.7c0,41.2-33.4,74.7-74.7,74.7
		C146.2,255.1,112.8,221.7,112.8,180.4z"/>
	<path class="st0" d="M293.4,71.2h-38.2l-32.7-38.4h-70l-32.7,38.4h-19.8V57.7H47.6v13.6h-5c-18,0-32.7,14.6-32.7,32.7v157.5
		c0,18,14.6,32.7,32.7,32.7h250.7c18,0,32.7-14.6,32.7-32.7V103.9C326,85.9,311.4,71.2,293.4,71.2z M92.6,123.9h-30v-30h30V123.9z
		 M187.5,273.1c-51.2,0-92.7-41.5-92.7-92.7c0-51.2,41.5-92.7,92.7-92.7s92.7,41.5,92.7,92.7C280.2,231.6,238.7,273.1,187.5,273.1z"
		/>
</g>
</svg>
