<?xml version="1.0" encoding="utf-8"?>
<!-- Generator: Adobe Illustrator 19.2.0, SVG Export Plug-In . SVG Version: 6.00 Build 0)  -->
<svg version="1.1" id="Icons" xmlns="http://www.w3.org/2000/svg" xmlns:xlink="http://www.w3.org/1999/xlink" x="0px" y="0px"
	 viewBox="0 0 336 336" style="enable-background:new 0 0 336 336;" xml:space="preserve">
<style type="text/css">
	.st0{fill:#FFFFFF;}
</style>
<g>
	<path class="st0" d="M269.4,29.1H65.9c-9.4,0-17.1,7.6-17.1,17.1v34.1c0,9.4,7.6,17.1,17.1,17.1h203.5c9.4,0,17.1-7.6,17.1-17.1
		V46.2C286.4,36.8,278.8,29.1,269.4,29.1z M253.2,72.7c-5.2,0-9.5-4.2-9.5-9.5c0-5.2,4.2-9.5,9.5-9.5c5.2,0,9.5,4.2,9.5,9.5
		C262.7,68.5,258.4,72.7,253.2,72.7z"/>
	<path class="st0" d="M269.4,111.1H65.9c-9.4,0-17.1,7.7-17.1,17.1v34.1c0,9.4,7.6,17.1,17.1,17.1h203.5c9.4,0,17.1-7.6,17.1-17.1
		v-34.1C286.4,118.8,278.8,111.1,269.4,111.1z M253.2,154.7c-5.2,0-9.5-4.2-9.5-9.5c0-5.2,4.2-9.5,9.5-9.5c5.2,0,9.5,4.2,9.5,9.5
		C262.7,150.5,258.4,154.7,253.2,154.7z"/>
	<path class="st0" d="M269.4,193.1H65.9c-9.4,0-17.1,7.6-17.1,17.1v34.1c0,9.4,7.6,17.1,17.1,17.1h203.5c9.4,0,17.1-7.6,17.1-17.1
		v-34.1C286.4,200.7,278.8,193.1,269.4,193.1z M253.2,236.7c-5.2,0-9.5-4.2-9.5-9.5c0-5.2,4.2-9.5,9.5-9.5c5.2,0,9.5,4.2,9.5,9.5
		C262.7,232.5,258.4,236.7,253.2,236.7z"/>
	<path class="st0" d="M274.2,10.5H61.1c-16.5,0-29.8,13.4-29.8,29.9v209.8c0,16.5,13.4,29.9,29.8,29.9h102.2v19.5
		c-5.3,1.5-9.3,5.6-10.9,10.8h-30.8v8.7h30.8c1.9,6.6,8,11.5,15.2,11.5c7.3,0,13.3-4.9,15.2-11.5h30.8v-8.7h-30.8
		c-1.5-5.2-5.6-9.3-10.8-10.8V280h102.2c16.5,0,29.9-13.4,29.9-29.9V40.4C304,23.9,290.6,10.5,274.2,10.5z M295.3,250.1
		c0,11.6-9.5,21.1-21.1,21.1H61.1c-11.6,0-21.1-9.5-21.1-21.1V40.4c0-11.6,9.5-21.1,21.1-21.1h213.1c11.6,0,21.1,9.5,21.1,21.1
		V250.1z"/>
</g>
</svg>
