<?xml version="1.0" encoding="utf-8"?>
<!-- Generator: Adobe Illustrator 19.2.0, SVG Export Plug-In . SVG Version: 6.00 Build 0)  -->
<svg version="1.1" id="圖層_1" xmlns="http://www.w3.org/2000/svg" xmlns:xlink="http://www.w3.org/1999/xlink" x="0px" y="0px"
	 viewBox="0 0 180 180" style="enable-background:new 0 0 180 180;" xml:space="preserve">
<style type="text/css">
	.st0{fill:#FFFFFF;}
</style>
<g>
	<path class="st0" d="M176.6,79h-7.4c-4.6-35.9-32.8-64.2-68.7-68.7V2.9H80.3v7.4C44.4,14.9,16.1,43.2,11.5,79H4.1v20.2h7.4
		c4.5,35.9,32.8,64.2,68.7,68.7v7.4h20.2V168c35.9-4.5,64.2-32.8,68.7-68.7h7.4V79z M87,9.6h6.8v6.8H87V9.6z M10.9,85.7h6.8v6.8
		h-6.8V85.7z M93.8,168.6H87v-6.8h6.8V168.6z M100.5,161.2v-6.1H80.3v6.1c-32.2-4.5-57.5-29.7-61.9-62h6V79h-6
		c4.5-32.1,29.8-57.5,61.9-61.9v6.1h20.2v-6.1c32.2,4.5,57.5,29.8,61.9,62h-6v20.2h6C158,131.4,132.7,156.7,100.5,161.2z
		 M169.9,92.5h-6.8v-6.8h3.1h0.3h3.4V92.5z"/>
	<path class="st0" d="M116.8,41.4c-2.9-2.9-7.9-2.9-10.7,0l-26,26c-1.4,1.4-2.2,3.4-2.2,5.4c0,2,0.8,3.9,2.2,5.4l2.2,2.2
		c-4.8,3.5-20,14-30.9,17.1l-2.2,0.6l-0.2,2.3c0,0.1-1.1,10-7.4,32l-0.6,2l2.2,2l-0.1,0.2l3.9,3.2l0.1-0.1l2.2,1.7l1.7-0.7
		c21.3-8,31-9.4,31.1-9.4l2.3-0.3l0.5-2.3c2.1-10.6,10.6-25.6,14.1-31.4c1.4,1.3,3.2,2,5.1,2c2,0,3.9-0.8,5.4-2.2l26-26
		c3-3,3-7.8,0-10.7L116.8,41.4z M78.7,124.9c-3.3,0.7-10.2,2.4-21.2,6.2l10.9-11.4c0.5,0.1,1,0.2,1.6,0.2h0c2.3-0.1,4.5-1.1,6-2.8
		c1.6-1.7,2.4-3.9,2.3-6.2c-0.2-4.6-4-8.3-9-8.3h0c-2.3,0.1-4.5,1.1-6,2.8c-1.6,1.7-2.4,3.9-2.3,6.2c0,0.6,0.2,1.3,0.7,2.5
		l-11.5,12.4c3.2-12.2,4.6-19.6,5.1-23.1c11.3-3.8,25-13.2,30.3-17l7.7,7.1C89.9,99,81.7,113.4,78.7,124.9z M67.7,111.2
		c0-0.5,0.2-1,0.5-1.4c0.4-0.4,0.8-0.6,1.5-0.6c1,0,1.9,0.8,2,1.9c0,0.5-0.2,1-0.5,1.4c-0.4,0.4-0.8,0.6-1.2,0.6
		c-0.3,0-1.1-0.2-1.5-0.3h0C68.2,112.2,67.8,111.4,67.7,111.2z M130.6,66l-26,26c-0.4,0.4-0.8,0.4-1.2,0L84.8,73.4
		c-0.2-0.2-0.3-0.5-0.3-0.6c0-0.2,0-0.4,0.3-0.6l26-26c0.2-0.2,0.4-0.3,0.6-0.3c0.2,0,0.4,0,0.6,0.3l18.6,18.6
		C131,65.1,131,65.7,130.6,66z"/>
</g>
</svg>
