<?xml version="1.0" encoding="utf-8"?>
<!-- Generator: Adobe Illustrator 19.2.0, SVG Export Plug-In . SVG Version: 6.00 Build 0)  -->
<svg version="1.1" id="圖層_1" xmlns="http://www.w3.org/2000/svg" xmlns:xlink="http://www.w3.org/1999/xlink" x="0px" y="0px"
	 viewBox="0 0 147.2 147.2" style="enable-background:new 0 0 147.2 147.2;" xml:space="preserve">
<style type="text/css">
	.st0{fill:#E60012;}
</style>
<path class="st0" d="M124.1,75.2c3.7-10.2-1.6-21.4-11.7-25c-10.2-3.7-21.4,1.6-25,11.7c-1.7,4.8-1.5,9.9,0.4,14.3l-5.5,7.3l8.7-2.1
	c2.1,2.4,4.9,4.4,8.1,5.5C109.2,90.6,120.4,85.3,124.1,75.2z M89.9,63.9c3-8.3,12.1-12.6,20.4-9.6c8.3,3,12.6,12.1,9.6,20.4
	c-3,8.3-12.1,12.6-20.4,9.6C91.2,81.3,86.9,72.2,89.9,63.9z M119,97.6c0,0.1,0,0.1,0,0.2c0,27-21.9,48.8-48.9,48.8
	s-48.8-21.9-48.8-48.8c0-26.9,21.7-48.9,48.7-48.9v3.2c-25.3,0.1-45.7,20.5-45.7,45.7c0,25.2,20.4,45.7,45.7,45.7
	c25.3,0,45.7-20.5,45.7-45.7c0-0.1,0-0.1,0-0.2H119z M89.1,111.2h8.5v6.6h-8.5v8.5h-6.6v-8.5h-8.5v-6.6h8.5v-8.5h6.6V111.2z
	 M78.5,107.1H70v14.2h-0.4H42.6c0-10.6,15.1-14.6,19.1-16.6c2.7-1.3,2.9-5.2,2.8-7.6c-2.9-2.7-4.9-7.4-4.9-12.7
	c0-8.3,4.7-15.1,10.6-15.1c5.8,0,10.5,6.8,10.5,15.1c0,5.3-1.9,10-4.9,12.7c-0.2,2.4,0.1,6.2,2.7,7.5V107.1z M93.9,52.2h-24v-3.2
	h31.2L93.9,52.2z M115.8,98.4V86.3L119,84v14.4H115.8z M115.8,98.4V85.9l3.2-2.3v14.8H115.8z M109.8,59.1c-1.1-1.2-2.5-1.9-4.2-1.9
	c-1.7,0-3.2,0.6-4.3,1.9c-1.3,1.5-1.8,3.7-2,5.6h-2.1v14.1h16.8V64.7h-2.2C111.6,62.8,111.1,60.6,109.8,59.1z M102.9,60.6
	c0.6-0.7,1.5-1.1,2.6-1.1c1.1,0,1.9,0.4,2.6,1.1c0.9,1,1.3,2.6,1.4,4.1h-8C101.6,63.2,102.1,61.6,102.9,60.6z M108.6,71.8h-6v-3.4h6
	V71.8z"/>
</svg>
