<?xml version="1.0" encoding="utf-8"?>
<!-- Generator: Adobe Illustrator 19.2.0, SVG Export Plug-In . SVG Version: 6.00 Build 0)  -->
<svg version="1.1" id="圖層_1" xmlns="http://www.w3.org/2000/svg" xmlns:xlink="http://www.w3.org/1999/xlink" x="0px" y="0px"
	 viewBox="0 0 147.2 147.2" style="enable-background:new 0 0 147.2 147.2;" xml:space="preserve">
<style type="text/css">
	.st0{fill:#FF0000;}
</style>
<path class="st0" d="M106.2,63.7v3.6H94.6c-0.6,0-1,0.5-1,1v0.5c0,0.6,0.4,1.1,1,1.1h11.6v3.6c0,0.5,0.5,1,1,1h6c0.5,0,1-0.5,1-1V70
	v-2.7v-3.6c0-0.6-0.5-1-1-1h-6C106.6,62.6,106.2,63.1,106.2,63.7z M112,64.3c0.4,0,0.6,0.3,0.6,0.7v2.3V70v2.2
	c0,0.4-0.2,0.8-0.6,0.8h-3.5c-0.3,0-0.6-0.3-0.6-0.8V70v-2.7V65c0-0.4,0.2-0.7,0.6-0.7H112z M95.8,73h-1.3c-0.6,0-1-0.5-1-1v-0.5
	c0-0.6,0.4-1,1-1h1.3c0.6,0,1,0.5,1,1v0.5C96.8,72.5,96.4,73,95.8,73z M124.1,75.2c3.7-10.1-1.6-21.3-11.7-25
	c-10.1-3.7-21.3,1.6-25,11.7c-1.7,4.8-1.5,9.9,0.4,14.3l-5.5,7.3l8.7-2.1c2.1,2.4,4.8,4.4,8.1,5.5C109.2,90.6,120.4,85.4,124.1,75.2
	z M89.9,64c3-8.3,12.1-12.6,20.4-9.6c8.3,3,12.6,12.1,9.6,20.4c-3,8.3-12.1,12.6-20.4,9.6C91.2,81.4,86.9,72.2,89.9,64z M118.9,97.7
	c0,0.1,0,0.1,0,0.2c0,27-21.9,48.8-48.9,48.8s-48.8-21.9-48.8-48.8C21.2,71,42.9,49.1,69.9,49v3.2c-25.3,0.1-45.6,20.5-45.6,45.7
	c0,25.2,20.4,45.7,45.7,45.7c25.2,0,45.7-20.5,45.7-45.7c0-0.1,0-0.1,0-0.2H118.9z M89.1,111.2h8.5v6.6h-8.5v8.5h-6.6v-8.5h-8.5
	v-6.6h8.5v-8.5h6.6V111.2z M78.5,107.1H70v14.2h-0.4h-27c0-10.5,15.1-14.6,19.1-16.6c2.7-1.3,2.9-5.2,2.8-7.6
	c-2.9-2.7-4.9-7.4-4.9-12.7c0-8.3,4.7-15.1,10.6-15.1c5.8,0,10.5,6.7,10.5,15.1c0,5.3-1.9,10-4.9,12.7c-0.2,2.4,0.1,6.2,2.7,7.5
	V107.1z M93.9,52.2h-24V49h31.2L93.9,52.2z M115.8,98.4V86.3L119,84v14.4H115.8z M115.8,98.4V86l3.2-2.3v14.7H115.8z"/>
</svg>
