<?xml version="1.0" encoding="utf-8"?>
<!-- Generator: Adobe Illustrator 19.2.0, SVG Export Plug-In . SVG Version: 6.00 Build 0)  -->
<svg version="1.1" id="Layer_1" xmlns="http://www.w3.org/2000/svg" xmlns:xlink="http://www.w3.org/1999/xlink" x="0px" y="0px"
	 viewBox="0 0 573.5 80.6" style="enable-background:new 0 0 573.5 80.6;" xml:space="preserve">
<style type="text/css">
	.st0{fill:#FFFFFF;}
</style>
<g>
	<path class="st0" d="M311.1,59.8c-2.1-2.4-4-5.6-4-6c3.9-7.6,5.9-18.6,5.9-30.6c0-0.1,0-0.3,0-0.4h2.7v-7.2h-13.7
		c0.7-3.4,1.9-7.7,2.3-10.4l-8.8-0.2c-0.3,3.9-2.1,11.4-3.9,17.7v-7.2h-2.6V8.2h-14.2V5.4h-8.6v2.8h-2.1l-2.8,5.7h5.5v2.6H261V8.2
		h-9.3v7.3h-3.2v7.9h3.2v7.4h14.2v1.8h-14.8v14H265l-1.2,1.8h-15.6v6.2h9.2c-2,1.8-3.8,3.9-5.4,5c5.4,1,9.5,1.9,12.2,2.7
		c-3.3,1.1-13.7,3.4-14.1,3.4l2.3,5.2c8.3-0.2,15.3-2.1,21.1-5.7c1.9,0,6,1.7,12.4,5.1c0,0,1.8-1.8,3.2-3.3l0.3,0.4l2.9,3.2
		c2.9-2.3,7.1-5.8,9.8-10.2c2.6,4.1,5.5,7.5,8.6,10.2l6-5.1C315.3,64.4,314.7,64,311.1,59.8z M291.2,23.4c-0.9,2.9-1.7,5.5-2.4,7.3
		l0-7.3L291.2,23.4z M274,13.8h6v2.6h-6V13.8z M288.8,30.7c-0.3,0.8-0.6,1.4-0.8,1.8h-13.4v-1.8L288.8,30.7z M274,22.4h6v2.7h-6
		V22.4z M274,38.3h6v2.6h-6V38.3z M261.2,25.1v-2.7h5.4v2.7H261.2z M260.8,40.8v-2.6h5.7v2.6H260.8z M272.7,58l-7.1-1.6l1.9-2.5h9
		C275.7,54.9,274.5,56.7,272.7,58z M288.7,63.8c-3-1.8-6.7-3.4-8.4-3.9c2.1-2.1,3.6-4.4,4.4-5.4h7.5v-6.2h-20l1-1.8h16v-8.7l2.5,1.7
		l1.3-2.2c0.7,5.8,2.1,11.3,4.3,16.4C296.2,56,292.4,60.9,288.7,63.8z M304.8,23.1c0,8.5-0.9,16.8-2.8,23
		c-1.4-6.5-2.4-13.1-2.9-20.2l0.7-3.1h5C304.8,22.9,304.8,23,304.8,23.1z"/>
	<g>
		<rect x="356.4" y="19.1" class="st0" width="41.7" height="7.1"/>
		<polygon class="st0" points="386.7,59.2 395.7,30.5 387,30.5 377.9,59.2 		"/>
		<path class="st0" d="M365.8,58.9h9.1L368,29.7h-9.4C360.7,35.2,365.8,58.9,365.8,58.9z"/>
		<path class="st0" d="M358.8,6.5l-9.4,0C344.9,25,339.1,35,332,45.8l7,3.9c2.2-3.1,2.8-3.8,4.4-6.9l-0.1,27.6h9.4V25.8
			C354,22.6,356.6,14,358.8,6.5z"/>
		<path class="st0" d="M373,16.5h11l-5.9-9.4h-10.6C373,16.6,372.9,16.2,373,16.5z"/>
		<rect x="355.6" y="62.4" class="st0" width="44.1" height="7"/>
	</g>
	<g>
		<g>
			<path class="st0" d="M440.7,20.6c3.8-1.1,7.1-2.6,9.9-4.5c0.3,0,1.4,1.1,3.3,3.3l5.9-4.4c-1.5-1.3-2.7-2.2-3.6-2.8
				c1.8-1.4,3.1-2.6,3.9-3.5l-5-3.6c0,0-2.9,3.2-3.7,3.4c-1.2-1-3.7-2.8-5.6-3.7L441,9.1c2,1.2,3.6,1.9,4.7,2.9
				c-1.9,1.1-3.5,2.1-7.3,3.1L440.7,20.6z"/>
			<path class="st0" d="M458.1,53.6c5.4-1.4,9.4-3.7,12.1-5.7v-5.4h-40.8v6.1h28.5c-3.9,1.1-7.8,1.9-11.8,2.4v2.5h-30.7v6.2H446v1.4
				c0,1.4-0.7,2.4-2.2,2.4h-10.1l1.5,6.6h14.1c2.7,0,4.5-0.5,5.4-1.5c0.8-1,1.3-3,1.3-5.9v-3.1h28.2v-6.2H458.1z"/>
		</g>
		<g>
			<path class="st0" d="M429.9,34l-0.1-3.2h8.1v-6.1h-8.1V22h8v-6h-8v-2.3c2.6-0.2,5.5-0.8,8.5-1.6V5.2c-5.4,1.4-12.3,2.3-18.2,2.4
				v25.9h-3.1v16.1h9.3l0.1-15.5L429.9,34z"/>
			<path class="st0" d="M479.7,33.8V7.1h-18.1v6.9h8.4v2.5h-7.5v6h7.4V25h-7.4v6.1h7.3l0,3h-13.6l4.6-4.8c-0.5-0.5-1.8-1.5-3.8-2.9
				c1.5-1,3-2.4,4.6-4l-5-3.5c-1.5,1.5-3,2.8-4.6,3.7c-1.8-1.3-3.5-2.3-5.3-3.1l-4.6,3.7c1.6,0.8,3.1,1.9,4.5,3
				c-1.7,0.8-4.3,1.5-7.9,2.1l3.3,5.9h-12.1l-3.3,5.8l46.8,0.1v9.7h9.3V33.8H479.7z M442.7,34.2c2.4-0.8,6.1-2,9-3.7
				c0.3,0,1.7,1.4,3.6,3.6L442.7,34.2z"/>
		</g>
	</g>
	<g>
		<path class="st0" d="M219.6,60.8V40.3h9.3v-7.5h-31.6v-4.9c10.8-0.1,19.9-1.5,30.5-4.4l-2.4-8c-9.7,3.2-23.5,4.8-37.8,4.8
			c-0.4,0-0.7,0-0.9,0v12.6c0,9.8-0.5,21.3-5,25.6l10.3,2.2c4.3-5.6,4.8-12,5.1-20.8h11.5v20.9H219.6z"/>
		<polygon class="st0" points="231.4,6.7 184.8,6.7 180.1,14.7 231.4,14.7 		"/>
		<polygon class="st0" points="180.1,62.8 180.1,6.7 169.5,6.7 169.5,70.3 232.7,70.3 232.7,62.8 		"/>
	</g>
	<g>
		<polygon class="st0" points="107.4,62 107.4,51.2 148.2,51.2 148.2,24.2 112.5,24.2 107.7,31.7 137.1,31.7 137.1,43.6 107.4,43.6 
			107.4,14.1 152.7,14.1 152.7,6.5 89.1,6.5 89.1,14.2 96.2,14.2 96.2,61.8 88.6,61.8 88.6,69.8 154,69.8 154,62 		"/>
	</g>
	<g>
		<path class="st0" d="M523.6,45.7c1.6-10.9-5-15.8-5-15.8l5.6-16.8V7.4h-8.9l-4.7,7.8l4.8-0.3l-5.6,14.7c0,0,5.2,6,5.2,12.6
			c0.3,7.2-6.2,5.5-6.2,5.5V7.4h-9.2v62.9h9.2V54.2C508.8,54.2,522,56.6,523.6,45.7z"/>
		<path class="st0" d="M532,31.4h30.7v-4.2h7V10.7h-17l-1.4-5.7l-11.4,0.6l2.2,4.9h-16.7v16.5h6.7V31.4z M534.1,17.5h26.3v6.8h-26.3
			V17.5z"/>
		<path class="st0" d="M562.9,52.2c0,0,0.5,8.9-1.1,9.4c-1.4,0.9-4.1,0.6-4.1-0.8c0-1.4,0-16,0-16l12,0v-7.2l-44.4,0v7.2h8.3
			c0,0-0.2,8-4.8,12.7c-4.7,4.7-9.6,5.6-9.6,5.6l6.8,7.6c0,0,10.1-4.7,14-12.8c3.9-8.1,3-13.1,3-13.1h5.5c0,0,0,15.5,0,19.3
			c0,3.9,4,4.9,5.2,4.9c1.2,0,9.6,0,12.5,0c2.9,0,3.5-2.4,4.2-4.4c0.7-2,1.5-9.8,1.5-9.8L562.9,52.2z"/>
	</g>
</g>
<path class="st0" d="M45.4,1.2C25.3,1.2,5.9,17.6,2.2,37.8C-1.5,58,11.8,74.3,32,74.3c20.2,0,39.5-16.4,43.3-36.5
	C79,17.6,65.6,1.2,45.4,1.2z M56.7,43.8l-5.2,18.3H38h-9C16.7,61.9,9.6,51.5,13.2,39c2.1-7.2,8.4-14.5,14.9-18.7
	c-3.2,3.7-7.8,8.2-9.3,13.4c-3.8,13.4,5.6,19.4,12.5,19.7h11.2l2.7-9.6H37l2.3-8.2h11.5H59L56.7,43.8z M61.9,25H43.6
	c-4.1,0.2-10.6,3.2-12.8,10.8c-2.8,9.8,4,13.9,4,13.9C26.5,49,20,42.8,23,32.4c2.9-10.3,12.3-19,24.9-19.3l17.4,0.3L61.9,25z"/>
</svg>
