<?xml version="1.0" encoding="utf-8"?>
<!-- Generator: Adobe Illustrator 19.2.0, SVG Export Plug-In . SVG Version: 6.00 Build 0)  -->
<svg version="1.1" id="圖層_1" xmlns="http://www.w3.org/2000/svg" xmlns:xlink="http://www.w3.org/1999/xlink" x="0px" y="0px"
	 viewBox="0 0 156.2 20" style="enable-background:new 0 0 156.2 20;" xml:space="preserve">
<style type="text/css">
	.st0{fill:none;enable-background:new    ;}
	.st1{fill:#DF2513;}
</style>
<path class="st0" d="z"/>
<path class="st1" d="M84.7,16c-0.6-0.7-1.1-1.5-1.1-1.6c1.1-2.1,1.6-5.1,1.6-8.4c0,0,0-0.1,0-0.1h0.7v-2h-3.7
	c0.2-0.9,0.5-2.1,0.6-2.9l-2.4,0c-0.1,1.1-0.6,3.1-1.1,4.9v-2h-0.7v-2h-3.9V1.1h-2.4v0.8h-0.6L71,3.4h1.5v0.7H71V1.9h-2.5v2h-0.9
	v2.2h0.9v2h3.9v0.5h-4v3.8h3.8l-0.3,0.5h-4.3v1.7H70c-0.5,0.5-1,1.1-1.5,1.4c1.5,0.3,2.6,0.5,3.3,0.7C71,17,68.1,17.6,68,17.6
	l0.6,1.4c2.3-0.1,4.2-0.6,5.8-1.6c0.5,0,1.6,0.5,3.4,1.4c0,0,0.5-0.5,0.9-0.9l0.1,0.1l0.8,0.9c0.8-0.6,1.9-1.6,2.7-2.8
	c0.7,1.1,1.5,2,2.4,2.8l1.6-1.4C85.8,17.3,85.7,17.2,84.7,16z M79.3,6.1c-0.2,0.8-0.5,1.5-0.7,2l0-2L79.3,6.1z M74.5,3.4h1.6v0.7
	h-1.6V3.4z M78.6,8.1c-0.1,0.2-0.2,0.4-0.2,0.5h-3.7V8.1L78.6,8.1z M74.5,5.8h1.6v0.7h-1.6V5.8z M74.5,10.1h1.6v0.7h-1.6V10.1z
	 M71,6.5V5.8h1.5v0.7H71z M70.9,10.8v-0.7h1.6v0.7H70.9z M74.2,15.5l-1.9-0.4l0.5-0.7h2.5C75,14.7,74.7,15.2,74.2,15.5z M78.6,17.1
	c-0.8-0.5-1.8-0.9-2.3-1.1c0.6-0.6,1-1.2,1.2-1.5h2.1v-1.7h-5.5l0.3-0.5h4.4V10l0.7,0.5l0.4-0.6c0.2,1.6,0.6,3.1,1.2,4.5
	C80.6,15,79.6,16.3,78.6,17.1z M83,6c0,2.3-0.3,4.6-0.8,6.3c-0.4-1.8-0.6-3.6-0.8-5.5l0.2-0.8L83,6C83,5.9,83,5.9,83,6z M108.5,6.8
	H97.1v-2h11.4V6.8z M103,15.9l2.5-7.8h2.4l-2.5,7.8H103z M97.7,7.8h2.6l1.9,8h-2.5C99.6,15.8,98.3,9.3,97.7,7.8z M96.1,6.7v12.2
	h-2.6l0-7.5c-0.4,0.9-0.6,1.1-1.2,1.9l-1.9-1.1c2-3,3.5-5.7,4.8-10.7l2.6,0C97.1,3.5,96.4,5.8,96.1,6.7z M100.1,1.6h2.9l1.6,2.6h-3
	C101.6,4.1,101.6,4.2,100.1,1.6z M108.9,16.7v1.9H96.9v-1.9H108.9z M119.5,3.8c1-0.3,1.5-0.5,2-0.8c-0.3-0.3-0.7-0.5-1.3-0.8
	l1.3-1.2c0.5,0.3,1.2,0.8,1.5,1c0.2-0.1,1-0.9,1-0.9l1.4,1c-0.2,0.2-0.6,0.6-1.1,0.9c0.2,0.2,0.6,0.4,1,0.8L123.8,5
	c-0.5-0.6-0.8-0.9-0.9-0.9c-0.8,0.5-1.7,0.9-2.7,1.2L119.5,3.8z M132,14.3V16h-7.7v0.8c0,0.8-0.1,1.3-0.3,1.6
	c-0.2,0.3-0.7,0.4-1.5,0.4h-3.9l-0.4-1.8h2.8c0.4,0,0.6-0.3,0.6-0.6V16h-8.4v-1.7h8.4v-0.7c1.1-0.1,2.2-0.4,3.2-0.7H117v-1.7h11.2
	v1.5c-0.7,0.5-1.8,1.2-3.3,1.5H132z M116.2,9l0,4.2h-2.5V8.8h0.9V1.7c1.6,0,3.5-0.3,5-0.7V3c-0.8,0.2-1.6,0.4-2.3,0.4V4h2.2v1.6
	h-2.2v0.8h2.2v1.7h-2.2l0,0.9L116.2,9z M130.8,8.9V1.6h-5v1.9h2.3v0.7h-2v1.6h2v0.7h-2v1.7h2l0,0.8h-3.7l1.2-1.3
	c-0.1-0.1-0.5-0.4-1-0.8c0.4-0.3,0.8-0.6,1.3-1.1l-1.4-1c-0.4,0.4-0.8,0.8-1.3,1c-0.5-0.3-1-0.6-1.4-0.9l-1.3,1
	c0.4,0.2,0.8,0.5,1.2,0.8c-0.5,0.2-1.2,0.4-2.2,0.6l0.9,1.6h-3.3l-0.9,1.6l12.8,0v2.6h2.5V8.9H130.8z M120.7,9
	c0.7-0.2,1.7-0.6,2.5-1c0.1,0,0.5,0.4,1,1L120.7,9z M56.7,16.3v-5.7h-3.1c-0.1,2.4-0.2,4.2-1.4,5.7l-2.8-0.6c1.2-1.2,1.4-4.3,1.4-7
	V5.2c0.1,0,0.1,0,0.2,0c3.9,0,7.7-0.4,10.3-1.3l0.7,2.2c-2.9,0.8-5.4,1.2-8.3,1.2v1.4h8.6v2h-2.6v5.6H56.7z M62.9,3.7h-14l1.3-2.2
	h12.7V3.7z M63.2,16.8v2H46V1.5h2.9v15.4H63.2z M41.7,16.6v2.1H23.8v-2.2h2.1v-13H24V1.4h17.4v2.1H29v8.1h8.1V8.3h-8l1.3-2.1h9.8
	v7.4H29v3H41.7z M138.8,14.5v4.4h-2.5V1.7h2.5v11c0,0,1.8,0.5,1.7-1.5c0-1.8-1.4-3.4-1.4-3.4l1.5-4l-1.3,0.1l1.3-2.1h2.4v1.6
	l-1.5,4.6c0,0,1.8,1.4,1.4,4.3C142.4,15.1,138.8,14.5,138.8,14.5z M145.1,8.3h8.4V7.1h1.9V2.6h-4.7l-0.4-1.5l-3.1,0.2l0.6,1.3h-4.6
	v4.5h1.8V8.3z M145.7,4.5h7.2v1.9h-7.2V4.5z M156,14.7c0,0-0.2,2.1-0.4,2.7c-0.2,0.5-0.3,1.2-1.1,1.2c-0.8,0-3.1,0-3.4,0
	c-0.3,0-1.4-0.3-1.4-1.3c0-1.1,0-5.3,0-5.3h-1.5c0,0,0.3,1.4-0.8,3.6c-1.1,2.2-3.8,3.5-3.8,3.5l-1.9-2.1c0,0,1.3-0.2,2.6-1.5
	c1.3-1.3,1.3-3.5,1.3-3.5h-2.3v-2l12.1,0v2l-3.3,0c0,0,0,4,0,4.4c0,0.4,0.7,0.5,1.1,0.2c0.4-0.1,0.3-2.6,0.3-2.6L156,14.7z M12,0
	C6.5,0,1.2,4.5,0.2,10c-1,5.5,2.6,10,8.2,10c5.5,0,10.8-4.5,11.8-10C21.2,4.5,17.5,0,12,0z M15.1,11.7l-1.4,5H10H7.5
	c-3.4-0.1-5.3-2.9-4.3-6.3c0.6-2,2.3-4,4.1-5.1c-0.9,1-2.1,2.2-2.5,3.7c-1,3.7,1.5,5.3,3.4,5.4h3.1l0.7-2.6H9.7l0.6-2.2h3.1h2.2
	L15.1,11.7z M16.5,6.5h-5c-1.1,0-2.9,0.9-3.5,2.9c-0.8,2.7,1.1,3.8,1.1,3.8C6.8,13.1,5,11.4,5.9,8.5c0.8-2.8,3.4-5.2,6.8-5.3
	l4.8,0.1L16.5,6.5z"/>
</svg>
