<?xml version="1.0" encoding="utf-8"?>
<!-- Generator: Adobe Illustrator 19.2.0, SVG Export Plug-In . SVG Version: 6.00 Build 0)  -->
<svg version="1.1" id="圖層_1" xmlns="http://www.w3.org/2000/svg" xmlns:xlink="http://www.w3.org/1999/xlink" x="0px" y="0px"
	 viewBox="0 0 147.2 147.2" style="enable-background:new 0 0 147.2 147.2;" xml:space="preserve">
<style type="text/css">
	.st0{fill:#E60012;}
</style>
<g>
	<path class="st0" d="M80.6,84.5c0-8.3-4.7-15.1-10.5-15.1c-5.8,0-10.6,6.8-10.6,15.1c0,5.3,2,10,4.9,12.7c0.1,2.4-0.1,6.2-2.8,7.6
		c-4,2-19.1,6-19.1,16.6h27.1H70v-14.2h8.5v-2.4c-2.7-1.4-2.9-5.2-2.7-7.5C78.7,94.5,80.6,89.8,80.6,84.5z"/>
	<path class="st0" d="M115.8,86.3L115.8,86.3l0,11.4h0c0,0.1,0,0.1,0,0.2c0,25.2-20.5,45.7-45.7,45.7c-25.3,0-45.7-20.5-45.7-45.7
		c0-25.2,20.4-45.6,45.6-45.7h24l7.2-3.2H69.9v0c-27,0.1-48.7,22-48.7,48.9c0,27,21.8,48.8,48.8,48.8c26.9,0,48.6-21.6,48.9-48.3h0
		h0V83.6l-3.2,2.3V86.3z"/>
	<polygon class="st0" points="82.6,102.7 82.6,111.2 74.1,111.2 74.1,117.8 82.6,117.8 82.6,126.2 89.1,126.2 89.1,117.8 
		97.6,117.8 97.6,111.2 89.1,111.2 89.1,102.7 	"/>
	<polygon class="st0" points="99.2,79.9 103.8,78.5 98.2,75.2 	"/>
	<path class="st0" d="M112.4,50.1c-10.2-3.7-21.4,1.6-25,11.7c-1.7,4.8-1.5,9.9,0.4,14.3l-5.5,7.3l8.7-2.1c2.1,2.4,4.9,4.4,8.1,5.5
		c10.2,3.7,21.4-1.6,25-11.7C127.8,65,122.5,53.8,112.4,50.1z M119.9,74.8c-3,8.3-12.1,12.6-20.4,9.6c-8.3-3-12.6-12.1-9.6-20.4
		c3-8.3,12.1-12.6,20.4-9.6C118.6,57.3,122.9,66.5,119.9,74.8z"/>
	<rect x="98.5" y="66.1" transform="matrix(0.5089 -0.8608 0.8608 0.5089 -7.9121 124.83)" class="st0" width="13.8" height="6.5"/>
	<path class="st0" d="M111.7,58.8c-2.8-1.7-4.6,1.3-4.6,1.3l5.6,3.3C112.7,63.5,114.5,60.5,111.7,58.8z"/>
</g>
</svg>
